<svg>
    <symbol id="logo" viewBox="0 0 98 35" fill="none" xmlns="http://www.w3.org/2000/svg">
        <path d="M0.000976562 4.36345V0H20.1901V4.36345H12.896V27.353H7.62074L7.42536 4.36345H0.000976562Z" fill="currentColor"/>
        <path d="M28.006 21.9478C25.4531 19.1344 23.4472 12.3091 23.4472 7.29443H18.3022C18.3022 15.9562 22.796 23.4457 25.2707 26.3113C23.838 28.7209 20.5817 29.8932 18.9535 30.3491L19.8001 34.7126C31.0018 32.3029 36.3422 16.4121 36.733 7.29443H31.5229C31.7833 12.5045 29.3737 19.994 28.006 21.9478Z" fill="currentColor"/>
        <path fill-rule="evenodd" clip-rule="evenodd" d="M62.7204 7.8793C66.997 6.35969 76.3317 4.88349 77.8297 12.8289L78.0251 26.1798C75.5502 27.6777 63.4888 29.8268 61.6132 23.8352C59.2687 16.3457 67.4746 14.3268 72.7498 15.8898C73.336 13.5453 72.0986 9.31207 63.5019 12.0474L62.7204 7.8793ZM72.7517 19.3382V23.5714C70.6026 24.2878 66.7601 24.9391 66.7601 21.4223C66.7601 18.4259 70.1997 18.951 72.23 19.2609C72.4171 19.2895 72.5923 19.3162 72.7517 19.3382Z" fill="currentColor"/>
        <path d="M82.9077 27.3508V8.46424C86.0859 6.4844 92.0905 6.68412 94.6956 7.03146L93.8489 11.46C90.8271 10.5743 88.8559 11.3515 88.2481 11.8508V27.3508H82.9077Z" fill="currentColor"/>
        <path fill-rule="evenodd" clip-rule="evenodd" d="M40.3774 8.4657V34.8418H45.5224V27.222C50.472 28.4594 58.222 27.4174 58.743 17.7136C59.3261 6.85318 48.4531 4.94888 40.3774 8.4657ZM45.6526 11.4517V22.5883C48.0406 23.4783 52.8864 23.8257 53.2073 17.2479C53.5199 10.8395 48.9089 10.5399 45.6526 11.4517Z" fill="currentColor"/>
        <path d="M95.1396 27.2166C94.8589 27.2166 94.6005 27.1704 94.3643 27.078C94.1315 26.9856 93.9279 26.8555 93.7533 26.6878C93.5822 26.52 93.4487 26.3232 93.3528 26.0973C93.257 25.8714 93.2091 25.625 93.2091 25.358C93.2091 25.0944 93.257 24.8497 93.3528 24.6238C93.4487 24.3979 93.5822 24.2028 93.7533 24.0385C93.9279 23.8707 94.1315 23.7407 94.3643 23.6483C94.6005 23.5558 94.8589 23.5096 95.1396 23.5096C95.4168 23.5096 95.6735 23.5558 95.9097 23.6483C96.1493 23.7407 96.3564 23.8707 96.531 24.0385C96.7055 24.2028 96.8407 24.3979 96.9366 24.6238C97.0358 24.8497 97.0855 25.0944 97.0855 25.358C97.0855 25.625 97.0358 25.8714 96.9366 26.0973C96.8407 26.3232 96.7055 26.52 96.531 26.6878C96.3564 26.8555 96.1493 26.9856 95.9097 27.078C95.6735 27.1704 95.4168 27.2166 95.1396 27.2166ZM95.1396 26.9496C95.4476 26.9496 95.7249 26.8829 95.9713 26.7494C96.2212 26.6125 96.418 26.4259 96.5618 26.1897C96.709 25.9501 96.7825 25.6763 96.7825 25.3682C96.7825 25.1458 96.7415 24.9387 96.6593 24.747C96.5772 24.5553 96.4625 24.3876 96.3153 24.2438C96.1681 24.0966 95.9936 23.9837 95.7916 23.905C95.5931 23.8228 95.3757 23.7817 95.1396 23.7817C94.9034 23.7817 94.686 23.8228 94.4875 23.905C94.2924 23.9837 94.1213 24.0949 93.9741 24.2387C93.8269 24.3825 93.7139 24.5502 93.6352 24.7419C93.5565 24.9335 93.5171 25.1389 93.5171 25.358C93.5171 25.5805 93.5565 25.7893 93.6352 25.9844C93.7139 26.176 93.8269 26.3438 93.9741 26.4875C94.1213 26.6313 94.2924 26.7442 94.4875 26.8264C94.686 26.9085 94.9034 26.9496 95.1396 26.9496ZM94.3078 24.2233H95.309C95.4493 24.2233 95.5726 24.2609 95.6787 24.3363C95.7882 24.4116 95.8738 24.5074 95.9354 24.6238C95.997 24.7367 96.0278 24.8548 96.0278 24.978C96.0278 25.0705 96.0107 25.1612 95.9765 25.2502C95.9422 25.3357 95.8943 25.4127 95.8327 25.4812C95.7711 25.5462 95.6992 25.5959 95.6171 25.6301L96.1459 26.4824H95.5965L95.1242 25.7225H94.7956V26.4824H94.3078V24.2233ZM95.2679 25.3169C95.3535 25.3169 95.4202 25.2878 95.4682 25.2296C95.5195 25.168 95.5452 25.0842 95.5452 24.978C95.5452 24.8651 95.5161 24.7812 95.4579 24.7265C95.4031 24.6717 95.3364 24.6443 95.2577 24.6443H94.7956V25.3169H95.2679Z" fill="currentColor"/>
    </symbol>

    <symbol id="chevron" viewBox="0 0 11 7" fill="none" xmlns="http://www.w3.org/2000/svg">
        <path d="M0.999999 1L5.375 5.375L9.75 1" stroke="currentColor" stroke-width="1.5" stroke-linecap="round" stroke-linejoin="round"/>
    </symbol>

    <symbol id="mark" viewBox="0 0 16 16" fill="none" xmlns="http://www.w3.org/2000/svg">
        <path fill-rule="evenodd" clip-rule="evenodd" d="M13.625 6.3125C13.625 10.9167 8.3125 15.1667 8.3125 15.1667C8.3125 15.1667 3 10.9167 3 6.3125C3 3.37858 5.37858 1 8.3125 1C11.2464 1 13.625 3.37858 13.625 6.3125ZM9.1257 8.27574C8.86789 8.38254 8.59156 8.4375 8.3125 8.4375C7.74891 8.4375 7.20841 8.21362 6.8099 7.8151C6.41138 7.41659 6.1875 6.87609 6.1875 6.3125C6.1875 5.74891 6.41138 5.20841 6.8099 4.8099C7.20841 4.41138 7.74891 4.1875 8.3125 4.1875C8.59156 4.1875 8.86789 4.24246 9.1257 4.34926C9.38352 4.45605 9.61778 4.61257 9.8151 4.8099C10.0124 5.00722 10.169 5.24148 10.2757 5.4993C10.3825 5.75711 10.4375 6.03344 10.4375 6.3125C10.4375 6.59156 10.3825 6.86789 10.2757 7.1257C10.169 7.38352 10.0124 7.61778 9.8151 7.8151C9.61778 8.01243 9.38352 8.16895 9.1257 8.27574Z" fill="currentColor"/>
    </symbol>

    <symbol id="phone" viewBox="0 0 14 14" fill="none" xmlns="http://www.w3.org/2000/svg">
        <path d="M11.2196 13.9997C10.6096 13.9997 9.75271 13.7791 8.46959 13.0622C6.90928 12.1872 5.7024 11.3794 4.15052 9.83158C2.65427 8.33627 1.92615 7.36815 0.907088 5.51377C-0.244162 3.42002 -0.0479125 2.32252 0.171462 1.85346C0.432712 1.29283 0.818337 0.957523 1.31677 0.62471C1.59988 0.439221 1.89948 0.280216 2.21178 0.14971C2.24303 0.136273 2.27209 0.12346 2.29803 0.111898C2.45271 0.0422101 2.68709 -0.0631024 2.98396 0.0493976C3.18209 0.123773 3.35896 0.27596 3.63584 0.549398C4.20365 1.1094 4.97959 2.35658 5.26584 2.96908C5.45802 3.3819 5.58521 3.6544 5.58553 3.96002C5.58553 4.31783 5.40553 4.59377 5.18709 4.89158C5.14615 4.94752 5.10552 5.00096 5.06615 5.05283C4.82834 5.36533 4.77615 5.45565 4.81052 5.6169C4.88021 5.94096 5.3999 6.90565 6.25396 7.75783C7.10803 8.61002 8.0449 9.0969 8.37021 9.16627C8.53834 9.20221 8.63052 9.14783 8.95302 8.90158C8.99928 8.86627 9.04677 8.82971 9.09646 8.79315C9.42959 8.54533 9.69271 8.37002 10.0421 8.37002H10.044C10.348 8.37002 10.6083 8.5019 11.0396 8.7194C11.6021 9.00315 12.8868 9.76908 13.4502 10.3375C13.7243 10.6138 13.8771 10.79 13.9518 10.9878C14.0643 11.2856 13.9583 11.5191 13.8893 11.6753C13.8777 11.7013 13.8649 11.7297 13.8515 11.7613C13.7199 12.073 13.56 12.372 13.3736 12.6544C13.0415 13.1513 12.7049 13.536 12.143 13.7975C11.8545 13.934 11.5387 14.0032 11.2196 13.9997Z" fill="currentColor"/>
    </symbol>

    <symbol id="mail" viewBox="0 0 14 12" fill="none" xmlns="http://www.w3.org/2000/svg">
        <path d="M12.332 0.664062H1.66536C0.932031 0.664062 0.338698 1.26406 0.338698 1.9974L0.332031 9.9974C0.332031 10.7307 0.932031 11.3307 1.66536 11.3307H12.332C13.0654 11.3307 13.6654 10.7307 13.6654 9.9974V1.9974C13.6654 1.26406 13.0654 0.664062 12.332 0.664062ZM12.0654 3.4974L7.35203 6.44406C7.1387 6.5774 6.8587 6.5774 6.64536 6.44406L1.93203 3.4974C1.86518 3.45987 1.80664 3.40917 1.75996 3.34837C1.71327 3.28756 1.67941 3.21791 1.66041 3.14364C1.64142 3.06937 1.6377 2.99202 1.64947 2.91627C1.66124 2.84051 1.68826 2.76794 1.72889 2.70293C1.76952 2.63792 1.82291 2.58183 1.88585 2.53806C1.94878 2.49429 2.01995 2.46374 2.09503 2.44826C2.17011 2.43279 2.24755 2.43271 2.32267 2.44803C2.39778 2.46335 2.46901 2.49375 2.53203 2.5374L6.9987 5.33073L11.4654 2.5374C11.5284 2.49375 11.5996 2.46335 11.6747 2.44803C11.7498 2.43271 11.8273 2.43279 11.9024 2.44826C11.9775 2.46374 12.0486 2.49429 12.1115 2.53806C12.1745 2.58183 12.2279 2.63792 12.2685 2.70293C12.3091 2.76794 12.3362 2.84051 12.3479 2.91627C12.3597 2.99202 12.356 3.06937 12.337 3.14364C12.318 3.21791 12.2841 3.28756 12.2374 3.34837C12.1908 3.40917 12.1322 3.45987 12.0654 3.4974Z" fill="currentColor"/>
    </symbol>

    <symbol id="puzzle" viewBox="0 0 29 20" fill="none" xmlns="http://www.w3.org/2000/svg">
        <path d="M6.62291 2.48511C6.63016 2.87998 6.49354 3.26389 6.23879 3.56455C6.18279 3.63039 6.1468 3.71101 6.13509 3.79683C6.12339 3.88264 6.13646 3.97003 6.17276 4.04859C6.20715 4.12854 6.2647 4.19623 6.33791 4.24284C6.41112 4.28945 6.49659 4.31282 6.5832 4.30991L9.21585 4.2916C9.27158 4.29305 9.3248 4.3152 9.36523 4.35379C9.40824 4.39676 9.43314 4.45472 9.43479 4.51565V6.30605C9.12351 6.18136 8.79103 6.11889 8.45596 6.12214C8.1125 6.12869 7.77432 6.2084 7.46375 6.356C7.15318 6.5036 6.87729 6.71574 6.65428 6.97842C6.42131 7.25316 6.24897 7.57447 6.14865 7.92111C6.04833 8.26775 6.0223 8.63184 6.0723 8.98934C6.14681 9.52538 6.39197 10.0228 6.77112 10.4071C7.15026 10.7914 7.643 11.042 8.17561 11.1213C8.59923 11.1807 9.03082 11.138 9.43479 10.9967V11.8097C9.73685 11.8365 10.037 11.8823 10.3333 11.9467V10.2033C10.3333 10.1148 10.3074 10.0283 10.2589 9.9545C10.2104 9.88069 10.1414 9.82282 10.0605 9.78808C9.97954 9.75334 9.89023 9.74327 9.80365 9.7591C9.71706 9.77493 9.63701 9.81598 9.57343 9.87715C9.39846 10.0271 9.19257 10.1361 8.97062 10.1964C8.74866 10.2566 8.51616 10.2666 8.2899 10.2256C7.95238 10.1735 7.64071 10.0129 7.40145 9.76801C7.16219 9.52309 7.0082 9.20691 6.9625 8.86673V8.86651C6.9298 8.63562 6.94619 8.4004 7.01059 8.17635C7.07499 7.9523 7.18593 7.74454 7.33608 7.56676C7.47623 7.40102 7.64978 7.26706 7.84524 7.17374C8.04071 7.08042 8.25365 7.02985 8.47 7.02539C8.87739 7.02538 9.27168 7.17002 9.5833 7.43379C9.64782 7.49227 9.72782 7.53069 9.81362 7.5444C9.89942 7.5581 9.98733 7.54651 10.0667 7.51101C10.1461 7.47551 10.2135 7.41764 10.2608 7.34441C10.3082 7.27117 10.3333 7.18571 10.3333 7.09838V4.50904C10.3312 4.21024 10.2114 3.92447 10 3.71439C9.78863 3.50431 9.50301 3.38706 9.20577 3.38836L7.36174 3.40115C7.54276 2.91385 7.57093 2.38251 7.44244 1.87864C7.31395 1.37477 7.03499 0.922571 6.6431 0.582907C6.38123 0.358134 6.07467 0.192101 5.7439 0.0958918C5.41312 -0.000316923 5.06574 -0.0244876 4.72493 0.0249935C4.19349 0.112072 3.70433 0.369603 3.33047 0.759135C2.95661 1.14867 2.71811 1.64931 2.65057 2.18631C2.59309 2.58511 2.62945 2.99191 2.75675 3.37403L1.09766 3.37248C0.801016 3.37946 0.519157 3.50407 0.313556 3.71913C0.107956 3.9342 -0.0047039 4.22227 0.000150623 4.5205V12.8914C0.00641754 13.0531 0.0488157 13.2112 0.124199 13.3542C0.199582 13.4971 0.306015 13.6211 0.4356 13.717C0.66221 13.8955 0.94055 13.9949 1.2284 14C1.23388 14 1.23959 13.9998 1.24529 13.9998H4.79004C4.78438 13.983 4.77758 13.9669 4.77253 13.9497C4.68995 13.6697 4.7002 13.3702 4.80175 13.0965H1.23827C1.14726 13.0924 1.05972 13.0602 0.987533 13.0043C0.944476 12.9767 0.9129 12.9342 0.898688 12.8848V4.51389C0.895411 4.45512 0.915042 4.39737 0.953415 4.35291C0.991789 4.30845 1.04589 4.28076 1.10423 4.27573L3.54603 4.27793H3.54648C3.63353 4.27795 3.71872 4.25254 3.79167 4.2048C3.86463 4.15705 3.92221 4.08902 3.95741 4.00899C3.99262 3.92895 4.00394 3.84036 3.98998 3.75398C3.97603 3.6676 3.93741 3.58716 3.87882 3.52243C3.73186 3.35824 3.62496 3.1619 3.56659 2.94897C3.50822 2.73604 3.49998 2.51237 3.54253 2.29568C3.58407 1.95476 3.73418 1.63648 3.97045 1.38837C4.20672 1.14025 4.51648 0.975592 4.85348 0.918977C5.06785 0.886453 5.28668 0.900993 5.49492 0.961598C5.70316 1.0222 5.89587 1.12744 6.05979 1.27005C6.23416 1.42072 6.37458 1.60702 6.47168 1.81654C6.56879 2.02606 6.62034 2.25398 6.62291 2.48511Z" fill="currentColor"/>
        <path d="M27.9084 3.38127C27.89 3.38175 27.8716 3.38065 27.8534 3.37796L26.0576 3.38259C26.1631 3.10203 26.2159 2.80424 26.2135 2.50431C26.2104 1.86834 25.9681 1.25714 25.5353 0.793603C25.1026 0.330067 24.5114 0.048573 23.8808 0.00572283C23.2502 -0.0371273 22.6268 0.161844 22.136 0.562629C21.6453 0.963414 21.3235 1.53629 21.2354 2.16606C21.1753 2.58443 21.2265 3.01135 21.3838 3.40333L19.5828 3.41215C19.2826 3.41412 18.9953 3.53578 18.7841 3.75046C18.5728 3.96515 18.4547 4.25534 18.4557 4.55746L18.4647 6.40729C18.1573 6.28786 17.8308 6.22605 17.5013 6.22493H17.4888C16.8568 6.22808 16.2493 6.4719 15.7886 6.90735C15.328 7.3428 15.0482 7.93759 15.0057 8.57213C14.9631 9.20666 15.1609 9.83388 15.5592 10.3277C15.9576 10.8214 16.527 11.1452 17.1529 11.2337C17.5856 11.2929 18.0262 11.2384 18.4318 11.0756L18.4362 11.9605C18.732 11.8949 19.0316 11.8474 19.3331 11.8182L19.3255 10.2668C19.3251 10.1794 19.2995 10.094 19.2518 10.0209C19.2041 9.94787 19.1363 9.89034 19.0567 9.85529C18.9771 9.82025 18.8891 9.8092 18.8034 9.8235C18.7177 9.8378 18.6379 9.87682 18.5738 9.93584C18.4004 10.096 18.1937 10.2152 17.9687 10.2849C17.7437 10.3546 17.5061 10.373 17.2732 10.3387C16.9288 10.2873 16.6101 10.1251 16.3648 9.87646C16.1195 9.62778 15.9608 9.30593 15.9123 8.95899C15.8818 8.73155 15.8998 8.50018 15.9651 8.2803C16.0305 8.06042 16.1417 7.85708 16.2913 7.68384C16.4409 7.51059 16.6254 7.37142 16.8327 7.2756C17.04 7.17977 17.2651 7.1295 17.4932 7.12812H17.5013C17.9096 7.12734 18.305 7.27175 18.6177 7.53584C18.6824 7.5942 18.7625 7.63241 18.8483 7.64584C18.9342 7.65927 19.022 7.64735 19.1013 7.61151C19.1805 7.57568 19.2477 7.51747 19.2947 7.44395C19.3417 7.37044 19.3665 7.28478 19.3661 7.19737L19.3534 4.55305C19.3532 4.49033 19.3777 4.4301 19.4216 4.38555C19.4655 4.341 19.5251 4.31575 19.5874 4.31534L22.1967 4.30255C22.2835 4.30212 22.3684 4.27633 22.441 4.2283C22.5136 4.18028 22.5708 4.1121 22.6056 4.03202C22.6404 3.95194 22.6514 3.86342 22.6372 3.77718C22.623 3.69095 22.5842 3.61072 22.5256 3.54622C22.3675 3.38124 22.2492 3.18195 22.1797 2.96368C22.1103 2.74542 22.0915 2.51403 22.125 2.28734C22.1761 1.94076 22.3372 1.62011 22.5844 1.37329C22.8315 1.12648 23.1514 0.96676 23.4962 0.917994C23.7223 0.8873 23.9522 0.905436 24.1708 0.971193C24.3893 1.03695 24.5914 1.14882 24.7636 1.29934C24.9357 1.44986 25.074 1.63558 25.1693 1.84412C25.2645 2.05266 25.3145 2.27923 25.3158 2.50873C25.3223 2.69294 25.2913 2.87655 25.2247 3.04825C25.1581 3.21996 25.0572 3.37614 24.9284 3.50719C24.8628 3.56917 24.8173 3.64954 24.7977 3.73788C24.7781 3.82622 24.7853 3.91845 24.8184 4.00261C24.8515 4.08677 24.909 4.15898 24.9834 4.20987C25.0578 4.26075 25.1457 4.28797 25.2356 4.288H25.2367L27.8229 4.28116C27.8949 4.28866 27.9621 4.32103 28.0131 4.37277C28.064 4.42452 28.0956 4.49243 28.1023 4.56495V12.8591C28.1025 12.8902 28.0966 12.921 28.0849 12.9497C28.0732 12.9785 28.056 13.0047 28.0342 13.0267C28.0129 13.0487 27.9874 13.0662 27.9593 13.0782C27.9312 13.0902 27.901 13.0966 27.8705 13.0968H23.9614C23.9666 13.1129 23.9691 13.1299 23.9737 13.1461C23.9826 13.1767 23.9901 13.2075 23.9968 13.2384C24.0013 13.2599 24.0066 13.2809 24.0101 13.3026C24.0187 13.3557 24.0242 13.4092 24.0265 13.4628C24.027 13.4765 24.0268 13.4901 24.027 13.5038C24.028 13.5605 24.0255 13.6173 24.0195 13.6738L24.0191 13.6785C24.0065 13.7884 23.9806 13.8964 23.9419 14H27.8727C28.1727 13.9985 28.4599 13.8773 28.6713 13.663C28.8826 13.4487 29.0009 13.1588 29 12.8569V4.5612C28.9915 4.26468 28.876 3.98142 28.6751 3.76429C28.4743 3.54717 28.2017 3.41102 27.9084 3.38127Z" fill="currentColor"/>
        <path d="M23.6524 17.9858C23.6483 17.9684 23.6431 17.9513 23.6369 17.9346C23.6314 17.9191 23.625 17.9039 23.6178 17.889C23.6138 17.8809 23.6097 17.8729 23.6051 17.865C23.5921 17.8418 23.5772 17.8199 23.5604 17.7994L23.5597 17.7983L23.5591 17.7977C23.5309 17.7622 23.4975 17.7311 23.4601 17.7055L22.5149 17.0771C22.4193 17.0132 22.303 16.9877 22.1894 17.0057C22.0758 17.0237 21.9732 17.0837 21.9018 17.174C21.8305 17.2642 21.7959 17.378 21.8047 17.4926C21.8135 17.6073 21.8652 17.7144 21.9494 17.7927C18.5906 18.138 16.7242 16.991 15.0924 15.6785C16.7849 14.2787 18.3179 13.0783 21.234 13.4993C21.1642 13.5755 21.1223 13.6731 21.1151 13.7762C21.1078 13.8792 21.1357 13.9817 21.1942 14.0669C21.2527 14.1521 21.3383 14.215 21.4371 14.2453C21.5359 14.2756 21.642 14.2716 21.7383 14.2339L22.8818 13.7872C22.9448 13.7623 23.0016 13.7237 23.0478 13.6742C23.0941 13.6246 23.1287 13.5654 23.1491 13.5007L23.1502 13.4975C23.1576 13.4741 23.1631 13.4501 23.1667 13.4258C23.1681 13.417 23.1691 13.4084 23.17 13.3996C23.1715 13.383 23.1721 13.3663 23.1717 13.3497C23.1716 13.3373 23.1716 13.3252 23.1705 13.3129C23.1686 13.2887 23.1648 13.2648 23.1591 13.2413L23.1581 13.2367C23.1387 13.1586 23.0992 13.0871 23.0434 13.0292L22.3923 12.1815C22.325 12.0935 22.2281 12.0329 22.1195 12.011C22.0109 11.9891 21.898 12.0073 21.8019 12.0623C21.7057 12.1174 21.6328 12.2054 21.5967 12.3101C21.5606 12.4148 21.5638 12.5291 21.6056 12.6317C18.0508 12.0407 16.1874 13.5812 14.3808 15.0775L14.3728 15.0841L14.3633 15.0762C12.355 13.3942 10.2779 11.6554 5.88853 12.9549C5.8308 12.972 5.77701 13.0003 5.73021 13.0382C5.68341 13.076 5.64453 13.1227 5.61579 13.1756C5.58704 13.2285 5.569 13.2865 5.56268 13.3464C5.55637 13.4062 5.56191 13.4668 5.57899 13.5245C5.61348 13.641 5.69287 13.7391 5.79969 13.7972C5.85259 13.8259 5.91062 13.844 5.97049 13.8503C6.03036 13.8566 6.09089 13.851 6.14861 13.834C9.98471 12.6977 11.7125 14.0536 13.6501 15.6746C11.8728 17.0886 9.81808 18.3143 5.86145 17.6889C5.74144 17.6701 5.61888 17.6997 5.52067 17.7711C5.42246 17.8426 5.35664 17.9501 5.33766 18.0701C5.31868 18.1901 5.3481 18.3126 5.41945 18.4109C5.4908 18.5092 5.59825 18.5752 5.7182 18.5943C6.4283 18.7099 7.14635 18.7696 7.86577 18.7729C10.9571 18.7729 12.8011 17.5379 14.3695 16.2723C15.9221 17.5389 17.7441 18.7729 20.7769 18.7729C21.117 18.7729 21.4727 18.7568 21.8441 18.7245C21.8104 18.8192 21.8088 18.9222 21.8395 19.0178C21.8703 19.1135 21.9316 19.1963 22.0141 19.2536C22.0966 19.3109 22.1957 19.3394 22.296 19.3348C22.3964 19.3302 22.4924 19.2927 22.5693 19.2281L23.5033 18.4442C23.5655 18.3916 23.6125 18.3234 23.6395 18.2466C23.6665 18.1698 23.6725 18.0872 23.6568 18.0073C23.6555 18.0001 23.654 17.993 23.6524 17.9858Z" fill="currentColor"/>
    </symbol>

    <symbol id="plant" viewBox="0 0 21 21" fill="none" xmlns="http://www.w3.org/2000/svg">
        <path fill-rule="evenodd" clip-rule="evenodd" d="M11.4272 1.96053C10.6073 2.57791 10.1026 3.29709 9.9647 4.08524C9.85633 4.70372 9.97127 5.37257 10.3336 6.07862C10.3785 5.27842 10.4617 4.59754 10.6062 4.175C10.6489 4.05021 10.7835 3.98453 10.9083 4.02723C11.032 4.06992 11.0988 4.20566 11.0561 4.32934C10.8995 4.78472 10.8207 5.58929 10.7857 6.52852C12.397 5.49188 12.1299 4.61179 11.784 3.47455C11.6461 3.01699 11.495 2.52318 11.4272 1.96053ZM10.5 0C13.3998 0 16.0248 1.17566 17.9239 3.07498C19.8242 4.97529 21 7.60016 21 10.5C21 13.3998 19.8243 16.0248 17.925 17.925C16.0247 19.8242 13.3998 21 10.5 21C7.60016 21 4.97523 19.8243 3.0761 17.925C1.1758 16.0247 0 13.3998 0 10.5C0 7.60016 1.17566 4.97523 3.07498 3.0761C4.97529 1.1758 7.60016 0 10.5 0ZM17.5879 3.4121C19.0175 4.84173 20.0169 6.70034 20.376 8.7791C16.7635 8.88637 13.7762 9.85953 11.3167 11.4566C11.1514 11.5639 10.9882 11.6745 10.8273 11.7872C10.8219 11.4818 10.8131 11.1151 10.8044 10.7156C10.7945 10.3291 10.7846 9.91098 10.777 9.47858C10.7814 9.40305 10.7814 9.32861 10.7781 9.25308C10.8098 8.82836 11.0233 8.40365 11.5443 8.06975C11.5805 8.04676 11.6177 8.02378 11.656 8.00188C13.5519 9.56067 14.4375 8.90936 15.5947 8.0588C15.992 7.76652 16.4266 7.44689 16.9498 7.20606C17.0144 7.1765 17.0691 7.13053 17.1075 7.07579C17.1469 7.01997 17.1709 6.95429 17.1775 6.88313H17.1764C17.183 6.81198 17.1699 6.74411 17.1414 6.68281C17.1118 6.62042 17.0681 6.56678 17.01 6.52628V6.52737C16.0117 5.83007 15.0079 5.53782 14.0567 5.69542C13.1416 5.84758 12.2877 6.41461 11.5499 7.43591H11.5488C11.5226 7.47313 11.5028 7.51254 11.4908 7.55414C11.4207 7.59245 11.354 7.63076 11.2916 7.67127C11.077 7.80919 10.903 7.95915 10.764 8.11899C10.7629 7.77089 10.7651 7.42388 10.7716 7.08892C10.7913 7.08125 10.8121 7.0714 10.8307 7.06046C12.9817 5.77971 12.6599 4.72226 12.2395 3.33758C12.0961 2.86469 11.9396 2.35021 11.886 1.7766L11.8849 1.77441C11.8783 1.70326 11.8542 1.63868 11.8137 1.58285C11.7743 1.52702 11.7196 1.48214 11.655 1.45259V1.45368C11.5904 1.42413 11.5225 1.41318 11.4558 1.41975C11.3879 1.42632 11.3222 1.45149 11.2642 1.492C10.2747 2.20244 9.66383 3.05188 9.49634 4.00203C9.33542 4.91388 9.58501 5.90455 10.3009 6.93886C10.2922 7.2968 10.2889 7.66682 10.2889 8.03899C10.2199 7.96346 10.1422 7.89012 10.0568 7.81896C9.93092 7.71497 9.78533 7.61755 9.61785 7.52778C9.60581 7.49494 9.58939 7.46429 9.56859 7.43473C8.8297 6.41233 7.97696 5.84528 7.06074 5.69315C6.1095 5.53442 5.10568 5.82779 4.10738 6.5251V6.524C4.04936 6.56451 4.00448 6.61815 3.97602 6.68054C3.94756 6.74184 3.93442 6.8108 3.94099 6.88086H3.9399C3.94647 6.95201 3.97055 7.01769 4.00996 7.07352C4.04827 7.12935 4.103 7.17313 4.16759 7.20378C4.69083 7.44461 5.12433 7.76425 5.52276 8.05653C6.68199 8.90927 7.56977 9.56168 9.47543 7.98756C9.58161 8.04996 9.67465 8.11454 9.75784 8.18241C10.1147 8.47579 10.2669 8.82826 10.3019 9.1862L10.3041 9.3099C10.303 9.36573 10.3041 9.42156 10.3063 9.47629L10.3074 9.48395C10.315 9.91635 10.3249 10.3356 10.3347 10.722C10.3446 11.1489 10.3544 11.5375 10.3588 11.8791C8.83723 11.2299 7.25664 10.8107 5.61785 10.6202C3.96493 10.4286 2.25283 10.4702 0.482883 10.7461C0.480694 10.6629 0.479599 10.5786 0.479599 10.4943C0.479599 7.72594 1.60162 5.22036 3.41559 3.40642C5.22614 1.59806 7.73172 0.476037 10.5001 0.476037C13.2685 0.476037 15.774 1.59813 17.5879 3.4121ZM0.502455 11.2292C0.55281 11.9286 0.674316 12.6084 0.861488 13.2597C3.458 12.9948 5.92528 13.2477 8.26353 14.0172C8.84478 13.401 9.46656 12.8284 10.1321 12.3041C8.66418 11.6823 7.13924 11.2795 5.56097 11.0967C3.93322 10.9095 2.24746 10.9533 0.502455 11.2292ZM1.006 13.7239C1.25668 14.4617 1.59054 15.1611 1.99668 15.8114C2.76294 15.807 3.51388 15.8486 4.25058 15.9373C4.97633 16.0248 5.69333 16.1584 6.39831 16.3368C6.86573 15.657 7.36925 15.0112 7.91002 14.4037C5.72617 13.7151 3.42412 13.4885 1.006 13.7239ZM2.31303 16.2854C2.64253 16.7506 3.01033 17.1862 3.41207 17.588C3.86964 18.0455 4.37209 18.4604 4.91176 18.8227C5.28284 18.1068 5.68458 17.4161 6.11698 16.756C5.48646 16.6039 4.84607 16.4878 4.19476 16.409C3.5741 16.3346 2.94574 16.293 2.31303 16.2854ZM5.31347 19.08C5.93853 19.4588 6.60845 19.7707 7.3134 20.0072C8.76055 17.5398 10.6039 15.4248 12.929 13.8715C15.0373 12.4638 17.5396 11.518 20.4997 11.194C20.515 10.9641 20.5238 10.7332 20.5238 10.5C20.5238 10.0774 20.4975 9.66037 20.4461 9.25098C16.9017 9.34731 13.9778 10.2942 11.5751 11.8541C11.2926 12.038 11.0168 12.2295 10.7486 12.4299C10.7409 12.4364 10.7322 12.443 10.7234 12.4485C8.44763 14.1528 6.67652 16.443 5.31347 19.08ZM7.77974 20.1506C8.53177 20.3619 9.31992 20.4888 10.1321 20.5173C11.3483 18.7998 12.7954 17.3044 14.5108 16.1191C16.1035 15.0178 17.9262 14.1859 20.0047 13.6911C20.2214 13.0464 20.3736 12.3721 20.4546 11.6769C17.6173 12.0021 15.2168 12.9139 13.1927 14.2658C10.9607 15.7567 9.18286 17.784 7.77974 20.1506ZM10.7124 20.5217C13.3954 20.4658 15.8201 19.3548 17.5878 17.5879C18.538 16.6378 19.2977 15.4971 19.8067 14.2296C17.9141 14.7168 16.2458 15.4961 14.7799 16.5087C13.2025 17.599 11.856 18.9607 10.7121 20.5216L10.7124 20.5217ZM6.98276 6.16428C6.19242 6.03293 5.34735 6.27047 4.49242 6.83748C4.99925 7.08816 5.41523 7.39467 5.80054 7.67709C6.75398 8.37876 7.49289 8.92171 8.99378 7.76794C8.51543 7.58951 7.87941 7.46255 7.0464 7.4111C6.91614 7.40343 6.81543 7.29068 6.82309 7.16042C6.83075 7.02906 6.9435 6.92945 7.07376 6.93711C7.74368 6.97761 8.29868 7.06847 8.75843 7.19545C8.20783 6.60542 7.60888 6.26828 6.98276 6.16428ZM12.3357 7.21734C12.8907 6.6142 13.4972 6.26937 14.131 6.16428C14.9213 6.03293 15.7664 6.27047 16.6213 6.83748C16.1145 7.08816 15.6985 7.39467 15.3132 7.67709C14.363 8.37657 13.6263 8.91734 12.1376 7.78108C12.6356 7.59499 13.2914 7.46363 14.143 7.41109C14.2732 7.40342 14.374 7.29068 14.3663 7.16041C14.3586 7.02905 14.2459 6.92944 14.1156 6.9371C13.4063 6.97979 12.8196 7.07832 12.3357 7.21734Z" fill="currentColor"/>
    </symbol>

    <symbol id="house" viewBox="0 0 16 18" fill="none" xmlns="http://www.w3.org/2000/svg">
        <path d="M0 16V7C0 6.68333 0.0709998 6.38333 0.213 6.1C0.355 5.81667 0.550667 5.58333 0.8 5.4L6.8 0.9C7.15 0.633333 7.55 0.5 8 0.5C8.45 0.5 8.85 0.633333 9.2 0.9L15.2 5.4C15.45 5.58333 15.646 5.81667 15.788 6.1C15.93 6.38333 16.0007 6.68333 16 7V16C16 16.55 15.804 17.021 15.412 17.413C15.02 17.805 14.5493 18.0007 14 18H11C10.7167 18 10.4793 17.904 10.288 17.712C10.0967 17.52 10.0007 17.2827 10 17V12C10 11.7167 9.904 11.4793 9.712 11.288C9.52 11.0967 9.28267 11.0007 9 11H7C6.71667 11 6.47933 11.096 6.288 11.288C6.09667 11.48 6.00067 11.7173 6 12V17C6 17.2833 5.904 17.521 5.712 17.713C5.52 17.905 5.28267 18.0007 5 18H2C1.45 18 0.979333 17.8043 0.588 17.413C0.196666 17.0217 0.000666667 16.5507 0 16Z" fill="#E4001C"/>
    </symbol>

    <symbol id="arrow" viewBox="0 0 24 14" fill="none" xmlns="http://www.w3.org/2000/svg">
        <path d="M16 -3.49691e-07C16 0.742 16.733 1.85 17.475 2.78C18.429 3.98 19.569 5.027 20.876 5.826C21.856 6.425 23.044 7 24 7M24 7C23.044 7 21.855 7.575 20.876 8.174C19.569 8.974 18.429 10.021 17.475 11.219C16.733 12.15 16 13.26 16 14M24 7L-3.0598e-07 7" stroke="currentColor"/>
    </symbol>

    <symbol id="download" viewBox="0 0 11 11" fill="none" xmlns="http://www.w3.org/2000/svg">
        <path d="M5.5 8.052C5.41567 8.052 5.33762 8.03812 5.26586 8.01036C5.19409 7.9826 5.12417 7.93441 5.05607 7.86579L2.9975 5.808C2.92102 5.73153 2.88121 5.64143 2.87807 5.53772C2.87493 5.434 2.91474 5.33893 2.9975 5.2525C3.08445 5.16555 3.17795 5.12129 3.278 5.11972C3.37857 5.11815 3.47207 5.16084 3.5585 5.24779L5.10714 6.79643V0.392862C5.10714 0.281291 5.14459 0.187791 5.2195 0.112363C5.2944 0.0369341 5.3879 -0.000518391 5.5 5.4187e-06C5.61209 0.000529228 5.7056 0.0379817 5.7805 0.112363C5.8554 0.186744 5.89286 0.280243 5.89286 0.392862V6.79643L7.4415 5.24779C7.51798 5.17131 7.60886 5.13124 7.71414 5.12757C7.81943 5.12391 7.91529 5.16555 8.00171 5.2525C8.08552 5.33893 8.12821 5.43165 8.12979 5.53064C8.13136 5.62964 8.08893 5.7221 8.0025 5.808L5.94393 7.86657C5.87583 7.93467 5.8059 7.9826 5.73414 8.01036C5.6629 8.03812 5.58486 8.052 5.5 8.052ZM1.26971 11C0.907762 11 0.605786 10.879 0.363786 10.637C0.121786 10.395 0.00052381 10.0928 0 9.73029V8.21936C0 8.10779 0.0374525 8.01455 0.112357 7.93964C0.187262 7.86474 0.280762 7.82703 0.392857 7.8265C0.504952 7.82598 0.598452 7.86369 0.673357 7.93964C0.748262 8.0156 0.785714 8.10884 0.785714 8.21936V9.73029C0.785714 9.85129 0.836 9.96233 0.936571 10.0634C1.03714 10.1645 1.14793 10.2148 1.26893 10.2143H9.73107C9.85155 10.2143 9.96233 10.164 10.0634 10.0634C10.1645 9.96286 10.2148 9.85181 10.2143 9.73029V8.21936C10.2143 8.10779 10.2517 8.01455 10.3266 7.93964C10.4015 7.86474 10.495 7.82703 10.6071 7.8265C10.7192 7.82598 10.8127 7.86369 10.8876 7.93964C10.9625 8.0156 11 8.10884 11 8.21936V9.73029C11 10.0922 10.879 10.3942 10.637 10.6362C10.395 10.8782 10.0928 10.9995 9.73029 11H1.26971Z" fill="currentColor"/>
    </symbol>

    <symbol id="cross" viewBox="0 0 20 20" fill="none" xmlns="http://www.w3.org/2000/svg">
        <path d="M10.0001 11.0611L2.1311 18.9301C1.9911 19.0701 1.8191 19.1451 1.6151 19.1551C1.4111 19.1651 1.2291 19.0901 1.0691 18.9301C0.909101 18.7701 0.829102 18.5931 0.829102 18.3991C0.829102 18.2051 0.909101 18.0281 1.0691 17.8681L8.9381 9.99912L1.0691 2.13013C0.929101 1.99013 0.854101 1.81812 0.844101 1.61412C0.834101 1.41012 0.909101 1.22812 1.0691 1.06812C1.2291 0.908125 1.4061 0.828125 1.6001 0.828125C1.7941 0.828125 1.9711 0.908125 2.1311 1.06812L10.0001 8.93712L17.8691 1.06812C18.0091 0.928125 18.1816 0.853125 18.3866 0.843125C18.5896 0.833125 18.7711 0.908125 18.9311 1.06812C19.0911 1.22812 19.1711 1.40512 19.1711 1.59912C19.1711 1.79312 19.0911 1.97013 18.9311 2.13013L11.0621 9.99912L18.9311 17.8681C19.0711 18.0081 19.1461 18.1806 19.1561 18.3856C19.1661 18.5886 19.0911 18.7701 18.9311 18.9301C18.7711 19.0901 18.5941 19.1701 18.4001 19.1701C18.2061 19.1701 18.0291 19.0901 17.8691 18.9301L10.0001 11.0611Z" fill="#131313" fill-opacity="0.8"/>
    </symbol>

    <symbol id="euroizol" viewBox="0 0 88 88" fill="none" xmlns="http://www.w3.org/2000/svg">
        <path d="M44.0319 0.000368556C45.2294 -0.0210843 45.7212 0.901391 45.1225 0.83703C40.0119 0.343614 34.9226 15.2748 34.9226 31.4288C34.9226 47.3469 38.0446 62.8143 43.476 64.0586C43.9892 64.1658 44.5237 64.1658 45.0155 64.0371C45.0583 64.0157 45.4005 63.9513 45.4432 63.9299C45.657 63.8655 47.496 64.6593 44.0105 65.3458C38.1729 65.3458 33.4258 50.7793 33.4258 32.7589C33.4258 14.7385 38.1729 0.000368556 44.0319 0.000368556Z" fill="currentColor"/>
        <path d="M45.4644 63.8872C45.5071 63.8657 45.4003 64.0803 44.6946 64.3377C44.4808 64.4021 44.2669 64.4235 44.0531 64.4235C36.0557 64.4235 34.623 36.7708 34.623 33.1452C34.623 15.1249 39.3702 0.408203 45.2292 0.408203C45.443 0.644185 45.443 0.858711 45.1223 0.83726C40.0117 0.343844 34.9224 15.275 34.9224 31.4076C34.9224 47.3471 38.0444 62.7931 43.4758 64.0374C44.1173 64.1661 44.8015 64.1232 45.4644 63.8872Z" fill="currentColor"/>
        <path d="M44.0537 0C49.8913 0 54.6384 12.5714 54.6384 30.7419C54.6384 48.9125 49.7203 65.5385 43.8398 65.3454C51.4951 60.1324 52.2007 38.5937 52.4146 33.5952C52.8208 23.8556 52.7781 6.90782 44.0537 0Z" fill="currentColor"/>
        <path d="M44.0538 0C44.1393 0.0214529 44.2035 0.0429057 44.289 0.0858113C51.2599 4.74109 53.3983 17.8273 53.0776 32.8873C52.7782 47.2392 49.9128 62.0631 43.8613 65.324C51.5166 60.1109 52.2222 38.5722 52.4361 33.5737C52.8424 23.8341 52.8209 6.88637 44.0965 0H44.0538Z" fill="currentColor"/>
        <path d="M15.8282 16.3469C16.4269 15.2742 17.4533 15.3172 17.0898 15.8106C14.1175 20.0153 24.4457 31.9002 38.3876 39.9665C52.1371 47.9255 67.0413 52.9455 70.8476 48.848C71.2111 48.4618 71.4677 47.9899 71.596 47.4965C71.6173 47.4321 71.7029 47.1103 71.7243 47.0674C71.7671 46.8529 73.3708 45.6515 72.2161 49.0196C69.2866 54.104 54.3396 50.9289 38.7939 41.9188C23.2482 32.9085 12.8986 21.4312 15.8282 16.3469Z" fill="currentColor"/>
        <path d="M71.7025 47.0464C71.7025 47.0035 71.8522 47.1965 71.7025 47.9474C71.6383 48.1619 71.5742 48.355 71.4672 48.5266C67.4686 55.4773 42.8777 42.8845 39.7557 41.0825C24.1887 32.0723 13.8818 20.595 16.79 15.5107C17.0893 15.4248 17.3032 15.5535 17.1108 15.8324C14.1385 20.0372 24.4666 31.9221 38.4086 39.9884C52.1581 47.9474 67.0623 52.9674 70.8685 48.8699C71.2748 48.3335 71.5742 47.7114 71.7025 47.0464Z" fill="currentColor"/>
        <path d="M15.8496 16.3255C18.7791 11.2411 31.9941 13.4079 47.6681 22.4824C63.3421 31.557 75.2526 44.1713 72.152 49.1698C71.4677 39.9236 53.2492 28.5322 49.0152 25.8506C40.8254 20.6161 26.1564 12.1851 15.8496 16.3255Z" fill="currentColor"/>
        <path d="M15.8496 16.3275C15.8924 16.2631 15.9565 16.2202 16.0421 16.1559C23.5476 12.4231 35.9072 17.1212 48.7586 24.9301C61.0113 32.3742 72.3658 42.2854 72.152 49.1718C71.4677 39.9256 53.2492 28.5341 49.0152 25.8525C40.8254 20.6181 26.1778 12.1871 15.8496 16.3275Z" fill="currentColor"/>
        <path d="M15.8489 49.0203C15.2288 47.9906 15.7634 47.111 16.02 47.6688C18.1584 52.3455 33.5757 49.2992 47.5177 41.2329C61.2672 33.274 73.0495 22.8264 71.4243 17.4847C71.2746 16.9913 70.9967 16.5407 70.6331 16.1546L70.3124 15.8327C70.1413 15.6826 69.9275 13.6875 72.2369 16.3691C75.1664 21.4534 64.9665 32.8449 49.3994 41.8765C33.8324 50.9082 18.7571 54.0832 15.8489 49.0203Z" fill="currentColor"/>
        <path d="M70.2691 15.833C70.2263 15.8115 70.483 15.7901 71.0389 16.2835C71.1886 16.4337 71.3169 16.6053 71.4238 16.7984C75.4225 23.7491 52.2857 38.809 49.1423 40.6325C33.5752 49.6427 18.5214 52.8607 15.5918 47.7977C15.6774 47.476 15.8912 47.3901 16.0195 47.669C18.1579 52.3457 33.5752 49.2994 47.5172 41.2331C61.2667 33.2742 73.049 22.8266 71.4238 17.4849C71.1886 16.8413 70.7823 16.2621 70.2691 15.833Z" fill="currentColor"/>
        <path d="M15.8283 48.9776C12.9202 43.8932 21.388 33.4886 37.062 24.4141C52.736 15.3395 69.5647 11.3064 72.3446 16.4979C64.005 12.4648 45.0807 22.612 40.6544 24.9289C32.0369 29.4555 17.4107 37.9722 15.8283 48.9776Z" fill="currentColor"/>
        <path d="M15.828 48.9773C15.8065 48.8915 15.7852 48.8057 15.7852 48.7413C16.3198 40.3532 26.5624 31.9652 39.7132 24.7141C52.2652 17.7848 66.5065 12.8721 72.3228 16.4976H72.3442C64.0046 12.4645 45.0804 22.6117 40.654 24.9286C32.0365 29.4337 17.4317 37.9505 15.828 48.9773Z" fill="currentColor"/>
        <path d="M2.95444 81.5203H8.04368V79.8039H2.95444V75.8567H8.3644V74.1406H0.751953V87.763H8.68519V86.0466H2.95444V81.5203Z" fill="currentColor"/>
        <path d="M18.9487 82.4003C18.9701 83.1509 18.8418 83.9016 18.5852 84.6093C18.3928 85.1245 18.0292 85.5751 17.5588 85.8752C17.0883 86.1542 16.5324 86.3046 15.9764 86.2828C15.4418 86.3046 14.9286 86.1542 14.4796 85.8752C14.0305 85.5751 13.667 85.1245 13.4745 84.6093C13.1966 83.9016 13.0683 83.1509 13.0897 82.4003V74.1406H10.9085V82.2709C10.8872 83.1509 11.0155 84.0302 11.2721 84.8884C11.4645 85.5532 11.828 86.1542 12.2985 86.6694C12.7475 87.1199 13.2821 87.4629 13.8808 87.6773C14.5438 87.8916 15.228 87.9992 15.9123 87.9992C16.6393 87.9992 17.345 87.8916 18.0292 87.6773C18.6493 87.4629 19.2267 87.12 19.6971 86.6476C20.1889 86.1331 20.5524 85.5322 20.7877 84.8673C21.0443 84.0302 21.1726 83.1509 21.1726 82.2499V74.1621H18.9487V82.4003Z" fill="currentColor"/>
        <path d="M32.8281 85.7048C32.6999 85.2114 32.5715 84.6533 32.4219 84.0742C32.2936 83.4311 32.0369 82.8301 31.6734 82.2939C31.3527 81.8223 30.9036 81.4786 30.3904 81.3071V81.2853C30.8609 81.1138 31.3099 80.8783 31.7162 80.5564C32.1011 80.2345 32.4219 79.8479 32.6357 79.3974C32.8709 78.904 32.9778 78.3895 32.9778 77.8533C32.9778 77.338 32.8923 76.8236 32.6784 76.3302C32.486 75.8796 32.1866 75.493 31.8231 75.1715C31.3313 74.7639 30.7326 74.485 30.1124 74.3348C29.3213 74.1418 28.4873 74.0559 27.6748 74.0775C27.2257 74.0775 26.798 74.0775 26.3918 74.1203C25.9855 74.1633 25.5578 74.1847 25.1943 74.2276C24.8308 74.2705 24.4672 74.3134 24.1465 74.3778V87.8288H26.3276V82.0577H27.6533C28.1024 82.0366 28.5301 82.1224 28.9364 82.2939C29.2999 82.4654 29.5993 82.7444 29.7917 83.1092C30.0483 83.5597 30.2194 84.0531 30.3049 84.5676C30.4332 85.1257 30.5401 85.6409 30.6471 86.0696C30.7539 86.4983 30.8609 86.8849 30.9464 87.185C31.0106 87.3994 31.0961 87.6145 31.203 87.8288H33.491C33.3627 87.5716 33.2558 87.3136 33.1917 87.0346C33.0847 86.6277 32.9564 86.1982 32.8281 85.7048ZM29.4068 80.1488C28.915 80.3631 28.359 80.4707 27.8244 80.4489H26.349V75.7721C26.5414 75.7292 26.7338 75.6863 26.9477 75.6863C27.2043 75.6653 27.5251 75.6435 27.8886 75.6435C28.2735 75.6435 28.637 75.6863 29.0005 75.7721C29.3213 75.8578 29.642 75.9864 29.92 76.1797C30.198 76.373 30.4118 76.6092 30.5615 76.9093C30.7326 77.2523 30.7967 77.6389 30.7967 78.0247C30.8181 78.4753 30.6898 78.9258 30.4332 79.3116C30.1766 79.6764 29.8344 79.9773 29.4068 80.1488Z" fill="currentColor"/>
        <path d="M45.9993 76.7165C45.6786 76.1592 45.251 75.6658 44.7591 75.2363C44.2673 74.8073 43.69 74.4855 43.0698 74.271C42.3855 74.035 41.6799 73.9277 40.9529 73.9277C40.0762 73.9277 39.1994 74.0994 38.4082 74.4426C37.6599 74.7644 36.9756 75.2581 36.4196 75.8801C35.8422 76.5232 35.4146 77.2957 35.1366 78.1328C34.8158 79.0767 34.6661 80.0635 34.6876 81.0503C34.6661 82.0153 34.8158 82.9592 35.1152 83.8603C35.3718 84.6538 35.7781 85.4052 36.3341 86.0483C36.8686 86.6492 37.5315 87.1426 38.2586 87.4645C39.0497 87.8075 39.9051 87.979 40.7818 87.9579C41.6157 87.9579 42.4711 87.8075 43.2409 87.5074C43.9893 87.2073 44.6735 86.7568 45.2295 86.1558C45.8283 85.512 46.2773 84.7614 46.5553 83.925C46.8975 82.9164 47.0471 81.8656 47.0258 80.8141C47.0258 80.0635 46.9402 79.3121 46.7691 78.6044C46.5981 77.9395 46.3415 77.2957 45.9993 76.7165ZM44.5453 82.5734C44.4598 83.0879 44.2887 83.5813 44.0748 84.0318C43.8824 84.4613 43.6258 84.8689 43.305 85.2119C42.3214 86.2416 40.7818 86.5417 39.4774 85.9843C39.0711 85.791 38.7076 85.5338 38.4082 85.2119C38.0875 84.8689 37.8309 84.4823 37.6384 84.0536C37.4246 83.5813 37.2749 83.1097 37.168 82.5945C37.0611 82.0582 36.9969 81.5219 36.9969 80.9856C36.9969 80.4494 37.0397 79.9131 37.1466 79.3979C37.2322 78.9045 37.3819 78.4111 37.5957 77.9395C37.7881 77.51 38.0447 77.1031 38.3655 76.7383C38.6649 76.3946 39.0497 76.1163 39.456 75.923C39.9051 75.7086 40.3969 75.6221 40.8887 75.6221C41.8296 75.6221 42.7277 76.0087 43.3692 76.7383C43.6685 77.1031 43.9252 77.489 44.1176 77.9177C44.31 78.3682 44.4811 78.8616 44.5667 79.355C44.6735 79.8702 44.7163 80.3847 44.7163 80.8999C44.7163 81.458 44.6522 82.0371 44.5453 82.5734Z" fill="currentColor"/>
        <path d="M51.4954 74.1406H49.293V87.7848H51.4954V74.1406Z" fill="currentColor"/>
        <path d="M56.4122 85.9609L63.4046 75.3851V74.1406H54.1456V75.8567H60.6033V75.9214L53.5469 86.6047V87.763H63.4688V86.0256H56.4122V85.9609Z" fill="currentColor"/>
        <path d="M76.1498 76.7165C75.8289 76.1592 75.4012 75.6658 74.9094 75.2363C74.4176 74.8073 73.8402 74.4855 73.2201 74.271C72.5358 74.035 71.8302 73.9277 71.1031 73.9277C70.2264 73.9277 69.3497 74.0994 68.5371 74.4426C67.7888 74.7644 67.1045 75.2581 66.5485 75.8801C65.9711 76.545 65.5435 77.2957 65.2655 78.1328C64.9447 79.0767 64.795 80.0635 64.8165 81.0503C64.795 82.0153 64.9447 82.9592 65.2441 83.8603C65.5007 84.6538 65.907 85.4052 66.463 86.0483C66.9975 86.6492 67.6604 87.1426 68.3875 87.4645C69.1786 87.8075 70.034 87.979 70.9107 87.9579C71.7446 87.9579 72.6 87.8075 73.3698 87.5074C74.1182 87.2073 74.8025 86.7568 75.3584 86.1558C75.9572 85.512 76.4063 84.7614 76.6846 83.925C77.0261 82.9164 77.1757 81.8656 77.1547 80.8141C77.1547 80.0635 77.0689 79.3121 76.8982 78.6044C76.7485 77.9395 76.492 77.2957 76.1498 76.7165ZM74.6956 82.5734C74.5886 83.0879 74.4389 83.5813 74.2251 84.0318C74.0327 84.4613 73.7761 84.8689 73.4553 85.2119C73.1559 85.5338 72.7924 85.791 72.3861 85.9843C71.5094 86.3491 70.5258 86.3491 69.6491 85.9843C69.2428 85.791 68.8793 85.5338 68.5799 85.2119C68.2591 84.8689 68.0026 84.4823 67.8101 84.0536C67.5963 83.5813 67.4252 83.1097 67.3397 82.5945C67.2328 82.0582 67.19 81.5219 67.19 80.9856C67.19 80.4494 67.2328 79.9131 67.3397 79.3979C67.4252 78.9045 67.5749 78.4111 67.7888 77.9395C67.9812 77.51 68.2378 77.1031 68.5585 76.7383C68.8579 76.3946 69.2214 76.1163 69.6491 75.923C70.0981 75.7086 70.5899 75.6221 71.0818 75.6221C72.0226 75.6221 72.9207 76.0087 73.5409 76.7383C73.8616 77.1031 74.0968 77.489 74.2893 77.9177C74.5031 78.3682 74.6528 78.8616 74.7384 79.355C74.8452 79.8702 74.888 80.3847 74.888 80.8999C74.8666 81.458 74.8024 82.0371 74.6956 82.5734Z" fill="currentColor"/>
        <path d="M81.6241 86.0256V74.1406H79.4219V87.763H87.2479V86.0256H81.6241Z" fill="currentColor"/>
    </symbol>

</svg>