<svg width="88" height="88" viewBox="0 0 88 88" fill="none" xmlns="http://www.w3.org/2000/svg">
<path d="M44.0319 0.000368556C45.2294 -0.0210843 45.7212 0.901391 45.1225 0.83703C40.0119 0.343614 34.9226 15.2748 34.9226 31.4288C34.9226 47.3469 38.0446 62.8143 43.476 64.0586C43.9892 64.1658 44.5237 64.1658 45.0155 64.0371C45.0583 64.0157 45.4005 63.9513 45.4432 63.9299C45.657 63.8655 47.496 64.6593 44.0105 65.3458C38.1729 65.3458 33.4258 50.7793 33.4258 32.7589C33.4258 14.7385 38.1729 0.000368556 44.0319 0.000368556Z" fill="#131313"/>
<path d="M45.4644 63.8872C45.5071 63.8657 45.4003 64.0803 44.6946 64.3377C44.4808 64.4021 44.2669 64.4235 44.0531 64.4235C36.0557 64.4235 34.623 36.7708 34.623 33.1452C34.623 15.1249 39.3702 0.408203 45.2292 0.408203C45.443 0.644185 45.443 0.858711 45.1223 0.83726C40.0117 0.343844 34.9224 15.275 34.9224 31.4076C34.9224 47.3471 38.0444 62.7931 43.4758 64.0374C44.1173 64.1661 44.8015 64.1232 45.4644 63.8872Z" fill="#131313"/>
<path d="M44.0537 0C49.8913 0 54.6384 12.5714 54.6384 30.7419C54.6384 48.9125 49.7203 65.5385 43.8398 65.3454C51.4951 60.1324 52.2007 38.5937 52.4146 33.5952C52.8208 23.8556 52.7781 6.90782 44.0537 0Z" fill="#131313"/>
<path d="M44.0538 0C44.1393 0.0214529 44.2035 0.0429057 44.289 0.0858113C51.2599 4.74109 53.3983 17.8273 53.0776 32.8873C52.7782 47.2392 49.9128 62.0631 43.8613 65.324C51.5166 60.1109 52.2222 38.5722 52.4361 33.5737C52.8424 23.8341 52.8209 6.88637 44.0965 0H44.0538Z" fill="#131313"/>
<path d="M15.8282 16.3469C16.4269 15.2742 17.4533 15.3172 17.0898 15.8106C14.1175 20.0153 24.4457 31.9002 38.3876 39.9665C52.1371 47.9255 67.0413 52.9455 70.8476 48.848C71.2111 48.4618 71.4677 47.9899 71.596 47.4965C71.6173 47.4321 71.7029 47.1103 71.7243 47.0674C71.7671 46.8529 73.3708 45.6515 72.2161 49.0196C69.2866 54.104 54.3396 50.9289 38.7939 41.9188C23.2482 32.9085 12.8986 21.4312 15.8282 16.3469Z" fill="#131313"/>
<path d="M71.7025 47.0464C71.7025 47.0035 71.8522 47.1965 71.7025 47.9474C71.6383 48.1619 71.5742 48.355 71.4672 48.5266C67.4686 55.4773 42.8777 42.8845 39.7557 41.0825C24.1887 32.0723 13.8818 20.595 16.79 15.5107C17.0893 15.4248 17.3032 15.5535 17.1108 15.8324C14.1385 20.0372 24.4666 31.9221 38.4086 39.9884C52.1581 47.9474 67.0623 52.9674 70.8685 48.8699C71.2748 48.3335 71.5742 47.7114 71.7025 47.0464Z" fill="#131313"/>
<path d="M15.8496 16.3255C18.7791 11.2411 31.9941 13.4079 47.6681 22.4824C63.3421 31.557 75.2526 44.1713 72.152 49.1698C71.4677 39.9236 53.2492 28.5322 49.0152 25.8506C40.8254 20.6161 26.1564 12.1851 15.8496 16.3255Z" fill="#131313"/>
<path d="M15.8496 16.3275C15.8924 16.2631 15.9565 16.2202 16.0421 16.1559C23.5476 12.4231 35.9072 17.1212 48.7586 24.9301C61.0113 32.3742 72.3658 42.2854 72.152 49.1718C71.4677 39.9256 53.2492 28.5341 49.0152 25.8525C40.8254 20.6181 26.1778 12.1871 15.8496 16.3275Z" fill="#131313"/>
<path d="M15.8489 49.0203C15.2288 47.9906 15.7634 47.111 16.02 47.6688C18.1584 52.3455 33.5757 49.2992 47.5177 41.2329C61.2672 33.274 73.0495 22.8264 71.4243 17.4847C71.2746 16.9913 70.9967 16.5407 70.6331 16.1546L70.3124 15.8327C70.1413 15.6826 69.9275 13.6875 72.2369 16.3691C75.1664 21.4534 64.9665 32.8449 49.3994 41.8765C33.8324 50.9082 18.7571 54.0832 15.8489 49.0203Z" fill="#131313"/>
<path d="M70.2691 15.833C70.2263 15.8115 70.483 15.7901 71.0389 16.2835C71.1886 16.4337 71.3169 16.6053 71.4238 16.7984C75.4225 23.7491 52.2857 38.809 49.1423 40.6325C33.5752 49.6427 18.5214 52.8607 15.5918 47.7977C15.6774 47.476 15.8912 47.3901 16.0195 47.669C18.1579 52.3457 33.5752 49.2994 47.5172 41.2331C61.2667 33.2742 73.049 22.8266 71.4238 17.4849C71.1886 16.8413 70.7823 16.2621 70.2691 15.833Z" fill="#131313"/>
<path d="M15.8283 48.9776C12.9202 43.8932 21.388 33.4886 37.062 24.4141C52.736 15.3395 69.5647 11.3064 72.3446 16.4979C64.005 12.4648 45.0807 22.612 40.6544 24.9289C32.0369 29.4555 17.4107 37.9722 15.8283 48.9776Z" fill="#131313"/>
<path d="M15.828 48.9773C15.8065 48.8915 15.7852 48.8057 15.7852 48.7413C16.3198 40.3532 26.5624 31.9652 39.7132 24.7141C52.2652 17.7848 66.5065 12.8721 72.3228 16.4976H72.3442C64.0046 12.4645 45.0804 22.6117 40.654 24.9286C32.0365 29.4337 17.4317 37.9505 15.828 48.9773Z" fill="#131313"/>
<path d="M2.95444 81.5203H8.04368V79.8039H2.95444V75.8567H8.3644V74.1406H0.751953V87.763H8.68519V86.0466H2.95444V81.5203Z" fill="#131313"/>
<path d="M18.9487 82.4003C18.9701 83.1509 18.8418 83.9016 18.5852 84.6093C18.3928 85.1245 18.0292 85.5751 17.5588 85.8752C17.0883 86.1542 16.5324 86.3046 15.9764 86.2828C15.4418 86.3046 14.9286 86.1542 14.4796 85.8752C14.0305 85.5751 13.667 85.1245 13.4745 84.6093C13.1966 83.9016 13.0683 83.1509 13.0897 82.4003V74.1406H10.9085V82.2709C10.8872 83.1509 11.0155 84.0302 11.2721 84.8884C11.4645 85.5532 11.828 86.1542 12.2985 86.6694C12.7475 87.1199 13.2821 87.4629 13.8808 87.6773C14.5438 87.8916 15.228 87.9992 15.9123 87.9992C16.6393 87.9992 17.345 87.8916 18.0292 87.6773C18.6493 87.4629 19.2267 87.12 19.6971 86.6476C20.1889 86.1331 20.5524 85.5322 20.7877 84.8673C21.0443 84.0302 21.1726 83.1509 21.1726 82.2499V74.1621H18.9487V82.4003Z" fill="#131313"/>
<path d="M32.8281 85.7048C32.6999 85.2114 32.5715 84.6533 32.4219 84.0742C32.2936 83.4311 32.0369 82.8301 31.6734 82.2939C31.3527 81.8223 30.9036 81.4786 30.3904 81.3071V81.2853C30.8609 81.1138 31.3099 80.8783 31.7162 80.5564C32.1011 80.2345 32.4219 79.8479 32.6357 79.3974C32.8709 78.904 32.9778 78.3895 32.9778 77.8533C32.9778 77.338 32.8923 76.8236 32.6784 76.3302C32.486 75.8796 32.1866 75.493 31.8231 75.1715C31.3313 74.7639 30.7326 74.485 30.1124 74.3348C29.3213 74.1418 28.4873 74.0559 27.6748 74.0775C27.2257 74.0775 26.798 74.0775 26.3918 74.1203C25.9855 74.1633 25.5578 74.1847 25.1943 74.2276C24.8308 74.2705 24.4672 74.3134 24.1465 74.3778V87.8288H26.3276V82.0577H27.6533C28.1024 82.0366 28.5301 82.1224 28.9364 82.2939C29.2999 82.4654 29.5993 82.7444 29.7917 83.1092C30.0483 83.5597 30.2194 84.0531 30.3049 84.5676C30.4332 85.1257 30.5401 85.6409 30.6471 86.0696C30.7539 86.4983 30.8609 86.8849 30.9464 87.185C31.0106 87.3994 31.0961 87.6145 31.203 87.8288H33.491C33.3627 87.5716 33.2558 87.3136 33.1917 87.0346C33.0847 86.6277 32.9564 86.1982 32.8281 85.7048ZM29.4068 80.1488C28.915 80.3631 28.359 80.4707 27.8244 80.4489H26.349V75.7721C26.5414 75.7292 26.7338 75.6863 26.9477 75.6863C27.2043 75.6653 27.5251 75.6435 27.8886 75.6435C28.2735 75.6435 28.637 75.6863 29.0005 75.7721C29.3213 75.8578 29.642 75.9864 29.92 76.1797C30.198 76.373 30.4118 76.6092 30.5615 76.9093C30.7326 77.2523 30.7967 77.6389 30.7967 78.0247C30.8181 78.4753 30.6898 78.9258 30.4332 79.3116C30.1766 79.6764 29.8344 79.9773 29.4068 80.1488Z" fill="#131313"/>
<path d="M45.9993 76.7165C45.6786 76.1592 45.251 75.6658 44.7591 75.2363C44.2673 74.8073 43.69 74.4855 43.0698 74.271C42.3855 74.035 41.6799 73.9277 40.9529 73.9277C40.0762 73.9277 39.1994 74.0994 38.4082 74.4426C37.6599 74.7644 36.9756 75.2581 36.4196 75.8801C35.8422 76.5232 35.4146 77.2957 35.1366 78.1328C34.8158 79.0767 34.6661 80.0635 34.6876 81.0503C34.6661 82.0153 34.8158 82.9592 35.1152 83.8603C35.3718 84.6538 35.7781 85.4052 36.3341 86.0483C36.8686 86.6492 37.5315 87.1426 38.2586 87.4645C39.0497 87.8075 39.9051 87.979 40.7818 87.9579C41.6157 87.9579 42.4711 87.8075 43.2409 87.5074C43.9893 87.2073 44.6735 86.7568 45.2295 86.1558C45.8283 85.512 46.2773 84.7614 46.5553 83.925C46.8975 82.9164 47.0471 81.8656 47.0258 80.8141C47.0258 80.0635 46.9402 79.3121 46.7691 78.6044C46.5981 77.9395 46.3415 77.2957 45.9993 76.7165ZM44.5453 82.5734C44.4598 83.0879 44.2887 83.5813 44.0748 84.0318C43.8824 84.4613 43.6258 84.8689 43.305 85.2119C42.3214 86.2416 40.7818 86.5417 39.4774 85.9843C39.0711 85.791 38.7076 85.5338 38.4082 85.2119C38.0875 84.8689 37.8309 84.4823 37.6384 84.0536C37.4246 83.5813 37.2749 83.1097 37.168 82.5945C37.0611 82.0582 36.9969 81.5219 36.9969 80.9856C36.9969 80.4494 37.0397 79.9131 37.1466 79.3979C37.2322 78.9045 37.3819 78.4111 37.5957 77.9395C37.7881 77.51 38.0447 77.1031 38.3655 76.7383C38.6649 76.3946 39.0497 76.1163 39.456 75.923C39.9051 75.7086 40.3969 75.6221 40.8887 75.6221C41.8296 75.6221 42.7277 76.0087 43.3692 76.7383C43.6685 77.1031 43.9252 77.489 44.1176 77.9177C44.31 78.3682 44.4811 78.8616 44.5667 79.355C44.6735 79.8702 44.7163 80.3847 44.7163 80.8999C44.7163 81.458 44.6522 82.0371 44.5453 82.5734Z" fill="#131313"/>
<path d="M51.4954 74.1406H49.293V87.7848H51.4954V74.1406Z" fill="#131313"/>
<path d="M56.4122 85.9609L63.4046 75.3851V74.1406H54.1456V75.8567H60.6033V75.9214L53.5469 86.6047V87.763H63.4688V86.0256H56.4122V85.9609Z" fill="#131313"/>
<path d="M76.1498 76.7165C75.8289 76.1592 75.4012 75.6658 74.9094 75.2363C74.4176 74.8073 73.8402 74.4855 73.2201 74.271C72.5358 74.035 71.8302 73.9277 71.1031 73.9277C70.2264 73.9277 69.3497 74.0994 68.5371 74.4426C67.7888 74.7644 67.1045 75.2581 66.5485 75.8801C65.9711 76.545 65.5435 77.2957 65.2655 78.1328C64.9447 79.0767 64.795 80.0635 64.8165 81.0503C64.795 82.0153 64.9447 82.9592 65.2441 83.8603C65.5007 84.6538 65.907 85.4052 66.463 86.0483C66.9975 86.6492 67.6604 87.1426 68.3875 87.4645C69.1786 87.8075 70.034 87.979 70.9107 87.9579C71.7446 87.9579 72.6 87.8075 73.3698 87.5074C74.1182 87.2073 74.8025 86.7568 75.3584 86.1558C75.9572 85.512 76.4063 84.7614 76.6846 83.925C77.0261 82.9164 77.1757 81.8656 77.1547 80.8141C77.1547 80.0635 77.0689 79.3121 76.8982 78.6044C76.7485 77.9395 76.492 77.2957 76.1498 76.7165ZM74.6956 82.5734C74.5886 83.0879 74.4389 83.5813 74.2251 84.0318C74.0327 84.4613 73.7761 84.8689 73.4553 85.2119C73.1559 85.5338 72.7924 85.791 72.3861 85.9843C71.5094 86.3491 70.5258 86.3491 69.6491 85.9843C69.2428 85.791 68.8793 85.5338 68.5799 85.2119C68.2591 84.8689 68.0026 84.4823 67.8101 84.0536C67.5963 83.5813 67.4252 83.1097 67.3397 82.5945C67.2328 82.0582 67.19 81.5219 67.19 80.9856C67.19 80.4494 67.2328 79.9131 67.3397 79.3979C67.4252 78.9045 67.5749 78.4111 67.7888 77.9395C67.9812 77.51 68.2378 77.1031 68.5585 76.7383C68.8579 76.3946 69.2214 76.1163 69.6491 75.923C70.0981 75.7086 70.5899 75.6221 71.0818 75.6221C72.0226 75.6221 72.9207 76.0087 73.5409 76.7383C73.8616 77.1031 74.0968 77.489 74.2893 77.9177C74.5031 78.3682 74.6528 78.8616 74.7384 79.355C74.8452 79.8702 74.888 80.3847 74.888 80.8999C74.8666 81.458 74.8024 82.0371 74.6956 82.5734Z" fill="#131313"/>
<path d="M81.6241 86.0256V74.1406H79.4219V87.763H87.2479V86.0256H81.6241Z" fill="#131313"/>
</svg>
