<svg width="17" height="17" viewBox="0 0 17 17" fill="none" xmlns="http://www.w3.org/2000/svg">
<path fill-rule="evenodd" clip-rule="evenodd" d="M15.7905 5.0532C18.0724 10.2526 14.2845 16.2069 8.49948 16.2069C6.3492 16.2069 4.32294 15.3446 2.83731 13.84C2.05261 14.1328 1.40827 13.141 2.00471 12.5452C2.63152 11.9184 3.65911 12.664 3.26711 13.452C6.14215 16.3418 10.8232 16.3587 13.7164 13.4655C15.8607 11.3213 16.4807 8.06712 15.2595 5.28466L15.7905 5.0532ZM14.437 2.606C14.3398 2.606 14.2474 2.62354 14.1617 2.65525C12.676 1.15132 10.6498 0.289062 8.49953 0.289062C2.71455 0.289062 -1.07336 6.24418 1.20854 11.4428L1.73887 11.2113C0.517633 8.42887 1.13769 5.17469 3.28194 3.03045C6.17512 0.13727 10.8569 0.154197 13.7313 3.04395C13.3386 3.83336 14.3655 4.5796 14.9936 3.95076C15.4916 3.4535 15.1313 2.606 14.437 2.606ZM10.0534 6.69411C8.67288 5.31364 6.30189 6.29602 6.30189 8.24798C6.30189 10.1999 8.67292 11.1823 10.0534 9.80185C10.9116 8.9436 10.9116 7.55239 10.0534 6.69411ZM11.7415 12.4919L12.7441 11.4892L12.2637 10.6384C12.5862 10.0879 12.6908 9.83348 12.8514 9.21746L13.7933 8.95568L13.7926 7.53945L12.8507 7.27767C12.6895 6.66098 12.5856 6.40864 12.2631 5.85671L12.7434 5.00589L11.7408 4.00326L10.89 4.48365C10.3381 4.16113 10.0857 4.05722 9.46903 3.89598L9.20725 2.95408L7.79102 2.95475L7.52924 3.89665C6.91322 4.05791 6.65952 4.16182 6.10828 4.48432L5.25746 4.00393L4.25483 5.00656L4.73522 5.85738C4.4127 6.40795 4.30811 6.66233 4.14755 7.27834L3.20632 7.53945V8.95568L4.14822 9.21746C4.3088 9.8328 4.41339 10.0879 4.73589 10.6384L4.2555 11.4892L5.25813 12.4919L6.10895 12.0115C6.65952 12.334 6.9139 12.4386 7.52991 12.5992L7.7917 13.5411H9.20792L9.46971 12.5992C10.0857 12.4379 10.3394 12.334 10.8907 12.0115L11.7415 12.4919ZM8.49939 5.47016C6.96509 5.47016 5.72159 6.71433 5.72159 8.24796C5.72159 10.714 8.71807 11.9581 10.4635 10.212C12.2096 8.46594 10.9655 5.47016 8.49939 5.47016Z" fill="#131313" fill-opacity="0.4"/>
</svg>
