<svg width="359" height="685" viewBox="0 0 359 685" fill="none" xmlns="http://www.w3.org/2000/svg">
<path d="M359 668.22C359 677.487 351.487 685 342.22 685H16.7797C7.51251 685 0 677.487 0 668.22V16.7796C0 7.5125 7.51251 0 16.7797 0H104.965C111.743 0 117.855 4.07764 120.458 10.3357L129.745 32.6643C132.348 38.9224 138.46 43 145.238 43H264.784C271.482 43 277.538 39.0163 280.191 32.8657L289.995 10.1343C292.648 3.98371 298.705 0 305.403 0H342.22C351.487 0 359 7.51251 359 16.7797V668.22Z" fill="white"/>
</svg>
