<svg width="14" height="14" viewBox="0 0 14 14" fill="none" xmlns="http://www.w3.org/2000/svg">
<path fill-rule="evenodd" clip-rule="evenodd" d="M2.47252 14H12.2043C12.3955 14 12.5697 13.9246 12.6964 13.8036C12.8224 13.6825 12.901 13.5147 12.901 13.331V12.018H2.48644C2.61754 12.1433 2.71825 12.2898 2.78855 12.4479C2.86645 12.6243 2.90572 12.8147 2.90635 13.005C2.90635 13.196 2.86772 13.3857 2.78855 13.5615V13.5621C2.71571 13.7233 2.61057 13.8729 2.47252 14ZM1.35974 2.53305C1.27424 2.53305 1.20458 2.46615 1.20458 2.38405C1.20458 2.30195 1.27424 2.23505 1.35974 2.23505H6.52517C6.61067 2.23505 6.68033 2.30195 6.68033 2.38405C6.68033 2.46615 6.61067 2.53305 6.52517 2.53305H1.35974ZM1.35974 4.07171C1.27424 4.07171 1.20458 4.00481 1.20458 3.92271C1.20458 3.84061 1.27424 3.77371 1.35974 3.77371H6.52517C6.61067 3.77371 6.68033 3.84061 6.68033 3.92271C6.68033 4.00481 6.61067 4.07171 6.52517 4.07171H1.35974ZM1.35974 5.61098C1.27424 5.61098 1.20458 5.54408 1.20458 5.46198C1.20458 5.37988 1.27424 5.31298 1.35974 5.31298H6.52517C6.61067 5.31298 6.68033 5.37988 6.68033 5.46198C6.68033 5.54408 6.61067 5.61098 6.52517 5.61098H1.35974ZM1.35974 7.14964C1.27424 7.14964 1.20458 7.08275 1.20458 7.00064C1.20458 6.91854 1.27424 6.85164 1.35974 6.85164H6.52517C6.61067 6.85164 6.68033 6.91854 6.68033 7.00064C6.68033 7.08275 6.61067 7.14964 6.52517 7.14964H1.35974ZM1.35974 8.68891C1.27424 8.68891 1.20458 8.62201 1.20458 8.53991C1.20458 8.45781 1.27424 8.39091 1.35974 8.39091H6.52517C6.61067 8.39091 6.68033 8.45781 6.68033 8.53991C6.68033 8.62201 6.61067 8.68891 6.52517 8.68891H1.35974ZM10.8814 2.26246C10.0181 2.29287 9.23913 2.64135 8.66858 3.18991C8.07071 3.76402 7.70083 4.55769 7.70083 5.43404C7.70083 6.31039 8.07069 7.10351 8.66858 7.67817C9.23921 8.22612 10.0182 8.57461 10.8814 8.60562V11.7207L1.98169 11.7201C1.89619 11.7201 1.82652 11.787 1.82652 11.8691C1.82652 11.9323 1.86769 11.9865 1.92596 12.0083C2.2059 12.1251 2.39843 12.3289 2.50293 12.5642C2.56499 12.7041 2.59603 12.8549 2.59603 13.0051C2.59603 13.1553 2.56499 13.3056 2.50293 13.4448C2.40476 13.6644 2.22806 13.8553 1.97156 13.9739C1.47313 13.9003 1.02537 13.6729 0.683362 13.3439C0.261554 12.9388 0 12.3811 0 11.7669V0.490797C0 0.355783 0.0576337 0.233549 0.1501 0.144136C0.242567 0.0553434 0.370505 0 0.511108 0H10.2498C10.4234 0 10.5811 0.0681148 10.6957 0.178188C10.8103 0.288266 10.8813 0.439702 10.8813 0.606338L10.8814 2.26246ZM10.7946 5.11409C10.7591 5.13781 10.737 5.16579 10.737 5.19255V7.27678C10.737 7.30293 10.7591 7.33152 10.7946 7.35524C10.8465 7.3899 10.9206 7.4118 11.0055 7.4118C11.0904 7.4118 11.1645 7.39051 11.2164 7.35524C11.2519 7.33152 11.2734 7.30354 11.2734 7.27678V5.19255C11.2734 5.1664 11.2513 5.13842 11.2164 5.11409C11.1645 5.07943 11.0904 5.05814 11.0055 5.05814C10.9213 5.05814 10.8465 5.07943 10.7946 5.11409ZM10.4273 5.19255V7.27678C10.4273 7.40693 10.5001 7.52066 10.6179 7.59911C10.7193 7.66662 10.8567 7.70919 11.0055 7.70919C11.1543 7.70919 11.2918 7.66723 11.3931 7.59911C11.5109 7.52005 11.5838 7.40632 11.5838 7.27678V5.19255C11.5838 5.0624 11.5109 4.94867 11.3931 4.87022C11.2918 4.80272 11.1543 4.76014 11.0055 4.76014C10.8567 4.76014 10.7193 4.80211 10.6179 4.87022C10.5001 4.94868 10.4273 5.06241 10.4273 5.19255ZM11.4748 4.24624C11.5951 4.1313 11.6692 3.97196 11.6692 3.7962C11.6692 3.62044 11.5951 3.46111 11.4748 3.34616C11.3551 3.23061 11.1892 3.15946 11.0061 3.15946C10.8231 3.15946 10.6572 3.23061 10.5375 3.34616C10.4172 3.46111 10.3431 3.62044 10.3431 3.7962C10.3431 3.97196 10.4172 4.1313 10.5375 4.24624C10.6572 4.3618 10.8231 4.43295 11.0061 4.43295C11.1885 4.43234 11.3545 4.36118 11.4748 4.24624ZM11.0055 4.13495C11.1031 4.13495 11.1911 4.09724 11.2551 4.03582C11.319 3.97439 11.3583 3.88986 11.3583 3.79619C11.3583 3.70253 11.319 3.61801 11.2551 3.55657C11.1911 3.49514 11.1031 3.45744 11.0055 3.45744C10.908 3.45744 10.82 3.49514 10.756 3.55657C10.692 3.61799 10.6527 3.70253 10.6527 3.79619C10.6527 3.88986 10.692 3.97438 10.756 4.03582C10.8199 4.09663 10.908 4.13495 11.0055 4.13495ZM11.0055 8.30934C11.8327 8.30934 12.5813 7.98762 13.1228 7.46702C13.665 6.94642 14 6.22758 14 5.43385C14 4.63958 13.665 3.92072 13.1228 3.40068C12.5807 2.8807 11.8321 2.55836 11.0055 2.55836C10.1784 2.55836 9.42977 2.88008 8.88821 3.40068C8.34607 3.92066 8.01103 4.64012 8.01103 5.43385C8.01103 6.22812 8.34607 6.94698 8.88821 7.46702C9.42971 7.98762 10.1783 8.30934 11.0055 8.30934Z" fill="#131313" fill-opacity="0.4"/>
</svg>
