<svg width="14" height="12" viewBox="0 0 14 12" fill="none" xmlns="http://www.w3.org/2000/svg">
<path d="M12.332 0.664062H1.66536C0.932031 0.664062 0.338698 1.26406 0.338698 1.9974L0.332031 9.9974C0.332031 10.7307 0.932031 11.3307 1.66536 11.3307H12.332C13.0654 11.3307 13.6654 10.7307 13.6654 9.9974V1.9974C13.6654 1.26406 13.0654 0.664062 12.332 0.664062ZM12.0654 3.4974L7.35203 6.44406C7.1387 6.5774 6.8587 6.5774 6.64536 6.44406L1.93203 3.4974C1.86518 3.45987 1.80664 3.40917 1.75996 3.34837C1.71327 3.28756 1.67941 3.21791 1.66041 3.14364C1.64142 3.06937 1.6377 2.99202 1.64947 2.91627C1.66124 2.84051 1.68826 2.76794 1.72889 2.70293C1.76952 2.63792 1.82291 2.58183 1.88585 2.53806C1.94878 2.49429 2.01995 2.46374 2.09503 2.44826C2.17011 2.43279 2.24755 2.43271 2.32267 2.44803C2.39778 2.46335 2.46901 2.49375 2.53203 2.5374L6.9987 5.33073L11.4654 2.5374C11.5284 2.49375 11.5996 2.46335 11.6747 2.44803C11.7498 2.43271 11.8273 2.43279 11.9024 2.44826C11.9775 2.46374 12.0486 2.49429 12.1115 2.53806C12.1745 2.58183 12.2279 2.63792 12.2685 2.70293C12.3091 2.76794 12.3362 2.84051 12.3479 2.91627C12.3597 2.99202 12.356 3.06937 12.337 3.14364C12.318 3.21791 12.2841 3.28756 12.2374 3.34837C12.1908 3.40917 12.1322 3.45987 12.0654 3.4974Z" fill="#E4001C"/>
</svg>
