<svg width="14" height="16" viewBox="0 0 14 16" fill="none" xmlns="http://www.w3.org/2000/svg">
<mask id="mask0_706_2214" style="mask-type:luminance" maskUnits="userSpaceOnUse" x="0" y="0" width="14" height="17">
<path d="M7 15.5039C7 15.5039 12.625 11.0039 12.625 6.12891C12.625 3.02241 10.1065 0.503906 7 0.503906C3.8935 0.503906 1.375 3.02241 1.375 6.12891C1.375 11.0039 7 15.5039 7 15.5039Z" fill="white" stroke="white" stroke-linejoin="round"/>
<path d="M7 8.37891C7.29547 8.37891 7.58806 8.32071 7.86104 8.20764C8.13402 8.09456 8.38206 7.92883 8.59099 7.7199C8.79992 7.51096 8.96566 7.26293 9.07873 6.98994C9.1918 6.71696 9.25 6.42438 9.25 6.12891C9.25 5.83343 9.1918 5.54085 9.07873 5.26787C8.96566 4.99489 8.79992 4.74685 8.59099 4.53792C8.38206 4.32898 8.13402 4.16325 7.86104 4.05018C7.58806 3.9371 7.29547 3.87891 7 3.87891C6.40326 3.87891 5.83097 4.11596 5.40901 4.53792C4.98705 4.95987 4.75 5.53217 4.75 6.12891C4.75 6.72564 4.98705 7.29794 5.40901 7.7199C5.83097 8.14185 6.40326 8.37891 7 8.37891Z" fill="black"/>
</mask>
<g mask="url(#mask0_706_2214)">
<path d="M-2 -1H16V17H-2V-1Z" fill="#131313" fill-opacity="0.4"/>
</g>
</svg>
