<svg width="110" height="72" viewBox="0 0 110 72" fill="none" xmlns="http://www.w3.org/2000/svg">
<path d="M70.2832 27.6081L74.9599 41.913C75.2922 42.9294 76.5438 43.2926 77.3685 42.6117L91.3356 31.0818C91.3356 31.0818 76.4937 25.2924 76.4937 25.6082C76.4937 25.924 70.2832 27.6081 70.2832 27.6081Z" fill="#131313"/>
<path d="M107.134 0.115691C98.0131 3.72352 68.5716 15.7878 57.4285 20.3592C55.9571 20.9626 56.0454 23.0733 57.5604 23.556L70.2832 27.6088L74.9452 41.8685C75.1326 42.4419 75.6061 42.8117 76.1343 42.9111C76.5631 42.9917 77.1958 31.3635 77.1958 31.3635C77.1958 31.3635 90.5707 41.2825 96.9149 45.9672C98.4781 47.1212 100.71 46.2533 101.08 44.3463C102.97 34.6062 107.695 10.2521 109.311 1.92597C109.554 0.673616 108.32 -0.353169 107.134 0.115691Z" fill="#E4001C"/>
<path d="M76.1347 42.9111C76.5635 42.9917 77.1958 31.3635 77.1958 31.3635L99.169 10.724C99.3174 10.5844 99.1401 10.3492 98.965 10.4537L70.2832 27.6091L74.9452 41.8689C75.133 42.4422 75.6065 42.812 76.1347 42.9111Z" fill="#424242"/>
<path d="M0 70.9122C15.0922 70.866 35.1545 62.3555 39.1814 46.0141C40.8067 39.4196 39.3619 32.3535 34.135 27.5404C27.5297 21.4579 20.2774 27.016 22.0619 35.5052C24.9934 49.4511 42.0258 59.778 54.9716 59.9241C62.4537 60.0085 69.4734 56.4208 72.1632 49.089" stroke="url(#paint0_linear_525_12076)" stroke-width="2" stroke-miterlimit="10" stroke-dasharray="5 5"/>
<defs>
<linearGradient id="paint0_linear_525_12076" x1="69.5" y1="42.0001" x2="1" y2="73.5001" gradientUnits="userSpaceOnUse">
<stop stop-color="#131313"/>
<stop offset="1" stop-color="white"/>
</linearGradient>
</defs>
</svg>
