<svg width="17" height="17" viewBox="0 0 17 17" fill="none" xmlns="http://www.w3.org/2000/svg">
<g clip-path="url(#clip0_706_2245)">
<path d="M10.3662 2.86049L14.1396 6.63398L15.0875 7.58186C15.3606 7.85489 15.8036 7.85489 16.074 7.58186C16.3471 7.30883 16.3471 6.8658 16.074 6.59534L10.4022 0.923523C10.1292 0.650492 9.68616 0.650492 9.41571 0.923523C9.14268 1.19655 9.14268 1.63958 9.41571 1.91004L10.3662 2.86049C10.3636 2.86049 10.3636 2.86049 10.3662 2.86049Z" fill="#131313" fill-opacity="0.4"/>
<path d="M9.0241 15.5915C9.7247 14.8832 10.1111 13.9456 10.1111 12.9488C10.1111 11.9443 9.71955 11.0015 9.01122 10.2906L6.71107 7.99047C6.00016 7.27956 5.05743 6.89062 4.05288 6.89062C3.05607 6.89062 2.11849 7.27699 1.41016 7.97759L9.0241 15.5915Z" fill="#131313" fill-opacity="0.4"/>
<path d="M9.3739 9.9279C9.70102 10.255 9.96633 10.6311 10.1698 11.0329L13.611 6.83441L10.1672 3.39062L5.96875 6.83184C6.37057 7.03532 6.74663 7.30063 7.07375 7.62775L9.3739 9.9279Z" fill="#131313" fill-opacity="0.4"/>
<path d="M5.22508 12.5217L4.85417 12.1483L4.48069 11.7773L1.00341 15.2572L0.722656 16.2798L1.74523 15.999L5.22508 12.5217Z" fill="#131313" fill-opacity="0.4"/>
</g>
<defs>
<clipPath id="clip0_706_2245">
<rect width="17" height="17" fill="white"/>
</clipPath>
</defs>
</svg>
