<svg width="62" height="73" viewBox="0 0 62 73" fill="none" xmlns="http://www.w3.org/2000/svg">
<path d="M56.6888 32.7822L57.1048 33.0596L56.6888 32.7822ZM0.311257 70.4928C0.214113 70.7513 0.344911 71.0396 0.603402 71.1368L4.81576 72.7198C5.07425 72.817 5.36255 72.6862 5.45969 72.4277C5.55684 72.1692 5.42604 71.8809 5.16755 71.7837L1.42323 70.3766L2.83039 66.6323C2.92753 66.3738 2.79673 66.0855 2.53824 65.9883C2.27975 65.8912 1.99145 66.022 1.89431 66.2805L0.311257 70.4928ZM0.779297 70.6687L0.985875 71.1241C1.5728 70.8578 2.15382 70.5935 2.72903 70.331L2.52149 69.8761L2.31394 69.4212C1.73941 69.6834 1.15903 69.9474 0.572719 70.2134L0.779297 70.6687ZM5.9734 68.2912L6.18322 68.745C7.3575 68.2022 8.50622 67.6671 9.63015 67.139L9.41754 66.6865L9.20492 66.2339C8.08302 66.761 6.93617 67.2952 5.76359 67.8373L5.9734 68.2912ZM12.8604 65.0534L13.0765 65.5043C14.2456 64.944 15.3862 64.3912 16.4994 63.8448L16.2791 63.396L16.0588 62.9471C14.9486 63.492 13.8108 64.0435 12.6443 64.6025L12.8604 65.0534ZM19.6845 61.7008L19.91 62.147C21.0707 61.5605 22.1997 60.9805 23.2983 60.4057L23.0665 59.9626L22.8347 59.5196C21.7406 60.0921 20.6159 60.6699 19.459 61.2545L19.6845 61.7008ZM26.4227 58.1704L26.6621 58.6093C27.8045 57.9861 28.9115 57.3674 29.9851 56.7517L29.7364 56.318L29.4876 55.8842C28.4206 56.4962 27.3197 57.1114 26.1832 57.7315L26.4227 58.1704ZM33.0144 54.383L33.2743 54.8101C34.39 54.1312 35.4668 53.4536 36.5072 52.775L36.234 52.3562L35.9608 51.9374C34.9298 52.61 33.8618 53.282 32.7544 53.9559L33.0144 54.383ZM39.3804 50.2208L39.6691 50.629C40.7337 49.876 41.7571 49.1186 42.7426 48.3537L42.4361 47.9587L42.1295 47.5637C41.1563 48.3191 40.1448 49.0676 39.0916 49.8126L39.3804 50.2208ZM45.3796 45.5537L45.706 45.9325C46.6881 45.0863 47.63 44.2275 48.5356 43.3521L48.1882 42.9926L47.8407 42.6331C46.9492 43.4948 46.0214 44.3408 45.0532 45.1749L45.3796 45.5537ZM50.8411 40.2672L51.21 40.6047C52.0755 39.6587 52.9064 38.6908 53.7073 37.6966L53.3179 37.3829L52.9285 37.0692C52.1407 38.0472 51.3235 38.9992 50.4722 39.9297L50.8411 40.2672ZM55.6109 34.3496L56.0187 34.6389C56.3868 34.1201 56.7486 33.5938 57.1048 33.0596L56.6888 32.7822L56.2728 32.5049C55.9218 33.0312 55.5655 33.5495 55.2031 34.0603L55.6109 34.3496ZM56.6888 32.7822L57.1048 33.0596C57.488 32.4848 57.8412 31.9076 58.1654 31.3289L57.7292 31.0845L57.2929 30.8402C56.9816 31.396 56.6419 31.9512 56.2728 32.5049L56.6888 32.7822ZM59.3756 27.4627L59.8471 27.6291C60.3138 26.3066 60.6398 24.9879 60.8369 23.6846L60.3425 23.6099L59.8481 23.5351C59.6605 24.7756 59.35 26.0329 58.9041 27.2964L59.3756 27.4627ZM60.5442 19.6436L61.0436 19.6189C60.9753 18.2373 60.7666 16.8901 60.4339 15.5925L59.9496 15.7166L59.4653 15.8408C59.7815 17.0746 59.9799 18.3551 60.0448 19.6683L60.5442 19.6436ZM58.5844 11.985L59.0346 11.7675C58.4382 10.5327 57.7245 9.36891 56.9121 8.2933L56.5131 8.59465L56.1141 8.89599C56.8873 9.91966 57.5666 11.0273 58.1342 12.2024L58.5844 11.985ZM53.816 5.67791L54.1472 5.30332C53.1202 4.39525 52.0073 3.59928 50.8289 2.93479L50.5833 3.37032L50.3377 3.80585C51.4533 4.4349 52.509 5.18967 53.4849 6.05249L53.816 5.67791ZM46.9271 1.82044L47.0677 1.34063C45.7605 0.957504 44.4071 0.729621 43.0294 0.677527L43.0105 1.17717L42.9916 1.67681C44.2838 1.72567 45.5554 1.93947 46.7865 2.30026L46.9271 1.82044ZM39.0599 1.53352L38.9521 1.04529C38.2933 1.19082 37.6344 1.37935 36.9777 1.61284L37.1452 2.08395L37.3127 2.55505C37.9305 2.3354 38.5496 2.15831 39.1678 2.02175L39.0599 1.53352Z" fill="#DEDEE0"/>
</svg>
