<svg width="38" height="50" viewBox="0 0 38 50" fill="none" xmlns="http://www.w3.org/2000/svg">
<path d="M33 26.0018L33.416 26.2791L33 26.0018ZM0.0176078 47.872C-0.0550293 48.1384 0.102061 48.4133 0.368479 48.4859L4.71001 49.6696C4.97643 49.7422 5.25128 49.5852 5.32392 49.3187C5.39656 49.0523 5.23947 48.7775 4.97305 48.7048L1.11391 47.6527L2.16608 43.7935C2.23872 43.5271 2.08163 43.2522 1.81521 43.1796C1.54879 43.107 1.27393 43.2641 1.2013 43.5305L0.0176078 47.872ZM0.748103 48.4376C1.12268 48.2235 1.7093 47.9621 2.49561 47.6377L2.11428 46.7133C1.33129 47.0363 0.689142 47.3195 0.251897 47.5694L0.748103 48.4376ZM6.19562 46.1483C7.32069 45.6895 8.56346 45.1682 9.88781 44.5745L9.47878 43.662C8.16798 44.2496 6.93631 44.7663 5.81798 45.2224L6.19562 46.1483ZM13.5096 42.8526C14.6619 42.2704 15.8469 41.6362 17.0464 40.9446L16.5469 40.0783C15.3651 40.7597 14.1964 41.3852 13.0587 41.96L13.5096 42.8526ZM20.4643 38.83C21.5613 38.101 22.6564 37.3208 23.7359 36.4853L23.1238 35.6945C22.0649 36.5141 20.9895 37.2804 19.9109 37.9971L20.4643 38.83ZM26.8225 33.8929C27.8033 32.9973 28.7584 32.0486 29.6762 31.0436L28.9378 30.3693C28.0417 31.3506 27.1081 32.2779 26.1482 33.1545L26.8225 33.8929ZM32.2501 27.9316C32.6504 27.3946 33.0395 26.8439 33.416 26.2791L32.584 25.7244C32.2174 26.2743 31.8384 26.8106 31.4483 27.3339L32.2501 27.9316ZM33.416 26.2791C33.8329 25.6538 34.2131 25.0366 34.558 24.4276L33.6879 23.9348C33.3555 24.5217 32.9881 25.1183 32.584 25.7244L33.416 26.2791ZM36.3584 20.4625C36.8645 18.9665 37.147 17.5325 37.2284 16.1676L36.2302 16.1081C36.1545 17.3768 35.8912 18.7231 35.4111 20.1421L36.3584 20.4625ZM36.7562 11.7818C36.3354 10.3348 35.6611 9.01309 34.7838 7.82872L33.9803 8.42393C34.7909 9.51839 35.4101 10.7339 35.7959 12.0609L36.7562 11.7818ZM31.6535 4.74205C30.5032 3.89518 29.2186 3.17815 27.8404 2.59842L27.4527 3.52019C28.7645 4.072 29.9792 4.75117 31.0606 5.54734L31.6535 4.74205ZM23.6769 1.32072C22.2766 1.03393 20.8266 0.868805 19.3571 0.832078L19.3321 1.83177C20.7435 1.86704 22.1347 2.02562 23.4763 2.30038L23.6769 1.32072ZM15.0192 1.09878C14.3039 1.20555 13.5906 1.34393 12.8827 1.51477L13.1173 2.48686C13.796 2.32307 14.4803 2.1903 15.1669 2.08783L15.0192 1.09878Z" fill="#DEDEE0"/>
</svg>
