<svg width="430" height="52" viewBox="0 0 430 52" fill="none" xmlns="http://www.w3.org/2000/svg">
<g clip-path="url(#clip0_6457_804)">
<path d="M402.77 34.9259C407.911 44.9212 418.208 51.2041 429.448 51.2041H1058C1074.57 51.2041 1088 64.6356 1088 81.2041V168.999C1088 185.568 1074.57 198.999 1058 198.999H-627C-643.568 198.999 -657 185.568 -657 168.999V81.2041C-657 64.6356 -643.569 51.2041 -627 51.2041H-1.19412C9.88512 51.2041 20.0625 45.0978 25.2763 35.322L35.6446 15.8821C40.8584 6.10633 51.0358 0 62.115 0H366.5C377.74 0 388.037 6.28294 393.178 16.2782L402.77 34.9259Z" fill="white"/>
</g>
<defs>
<clipPath id="clip0_6457_804">
<rect width="430" height="52" fill="white"/>
</clipPath>
</defs>
</svg>
