<svg width="768" height="685" viewBox="0 0 768 685" fill="none" xmlns="http://www.w3.org/2000/svg">
<path d="M768 668.22C768 677.488 760.487 685 751.22 685H16.7796C7.5125 685 0 677.487 0 668.22V16.7797C0 7.5125 7.51251 0 16.7797 0H240.967C245.757 0 250.319 2.04711 253.503 5.62559L281.752 37.3744C284.936 40.9529 289.498 43 294.288 43H582.707C587.391 43 591.862 41.0418 595.039 37.5989L624.747 5.40106C627.924 1.95821 632.395 0 637.079 0H751.22C760.487 0 768 7.51251 768 16.7797V668.22Z" fill="white"/>
</svg>
