<svg width="14" height="14" viewBox="0 0 14 14" fill="none" xmlns="http://www.w3.org/2000/svg">
<path d="M11.2196 13.9997C10.6096 13.9997 9.75271 13.7791 8.46959 13.0622C6.90928 12.1872 5.7024 11.3794 4.15052 9.83158C2.65427 8.33627 1.92615 7.36815 0.907088 5.51377C-0.244162 3.42002 -0.0479125 2.32252 0.171462 1.85346C0.432712 1.29283 0.818337 0.957523 1.31677 0.62471C1.59988 0.439221 1.89948 0.280216 2.21178 0.14971C2.24303 0.136273 2.27209 0.12346 2.29803 0.111898C2.45271 0.0422101 2.68709 -0.0631024 2.98396 0.0493976C3.18209 0.123773 3.35896 0.27596 3.63584 0.549398C4.20365 1.1094 4.97959 2.35658 5.26584 2.96908C5.45802 3.3819 5.58521 3.6544 5.58553 3.96002C5.58553 4.31783 5.40553 4.59377 5.18709 4.89158C5.14615 4.94752 5.10552 5.00096 5.06615 5.05283C4.82834 5.36533 4.77615 5.45565 4.81052 5.6169C4.88021 5.94096 5.3999 6.90565 6.25396 7.75783C7.10803 8.61002 8.0449 9.0969 8.37021 9.16627C8.53834 9.20221 8.63052 9.14783 8.95302 8.90158C8.99928 8.86627 9.04677 8.82971 9.09646 8.79315C9.42959 8.54533 9.69271 8.37002 10.0421 8.37002H10.044C10.348 8.37002 10.6083 8.5019 11.0396 8.7194C11.6021 9.00315 12.8868 9.76908 13.4502 10.3375C13.7243 10.6138 13.8771 10.79 13.9518 10.9878C14.0643 11.2856 13.9583 11.5191 13.8893 11.6753C13.8777 11.7013 13.8649 11.7297 13.8515 11.7613C13.7199 12.073 13.56 12.372 13.3736 12.6544C13.0415 13.1513 12.7049 13.536 12.143 13.7975C11.8545 13.934 11.5387 14.0032 11.2196 13.9997Z" fill="#E4001C"/>
</svg>
