<svg width="16" height="17" viewBox="0 0 16 17" fill="none" xmlns="http://www.w3.org/2000/svg">
<path d="M1.76925 0.104148C1.66677 0.0433867 1.55003 0.0108318 1.43089 0.00979137C1.31176 0.00875092 1.19447 0.0392619 1.09094 0.0982243C0.987416 0.157187 0.90134 0.2425 0.841457 0.345498C0.781575 0.448495 0.750021 0.565508 0.75 0.684648V16.3154C0.750021 16.4345 0.781575 16.5515 0.841457 16.6545C0.90134 16.7575 0.987416 16.8429 1.09094 16.9018C1.19447 16.9608 1.31176 16.9913 1.43089 16.9903C1.55003 16.9892 1.66677 16.9567 1.76925 16.8959L14.9576 9.08052C15.0583 9.02076 15.1418 8.93581 15.1997 8.83403C15.2577 8.73225 15.2882 8.61715 15.2882 8.50002C15.2882 8.3829 15.2577 8.26779 15.1997 8.16601C15.1418 8.06424 15.0583 7.97929 14.9576 7.91952L1.76925 0.104148Z" fill="white"/>
</svg>
